<?xml version="1.0" encoding="UTF-8" standalone="no"?>
<!DOCTYPE svg PUBLIC "-//W3C//DTD SVG 1.1//EN"
 "http://www.w3.org/Graphics/SVG/1.1/DTD/svg11.dtd">
<!-- Generated by graphviz version 2.38.0 (20140413.2041)
 -->
<!-- Title: rgraph Pages: 1 -->
<svg width="481pt" height="658pt"
 viewBox="0.00 0.00 481.00 657.98" xmlns="http://www.w3.org/2000/svg" xmlns:xlink="http://www.w3.org/1999/xlink">
<g id="graph0" class="graph" transform="scale(1 1) rotate(0) translate(4 653.984)">
<title>rgraph</title>
<!-- 0 -->
<g id="node1" class="node"><title>0</title>
<ellipse fill="dodgerblue" stroke="black" cx="182" cy="-631.984" rx="18" ry="18"/>
<text text-anchor="middle" x="182" y="-628.284" font-family="Times,serif" font-size="14.00">0</text>
</g>
<!-- 2 -->
<g id="node2" class="node"><title>2</title>
<ellipse fill="dodgerblue" stroke="black" cx="136" cy="-559.984" rx="18" ry="18"/>
<text text-anchor="middle" x="136" y="-556.284" font-family="Times,serif" font-size="14.00">2</text>
</g>
<!-- 0&#45;&gt;2 -->
<g id="edge2" class="edge"><title>0&#45;&gt;2</title>
<path fill="none" stroke="black" d="M172.469,-616.48C166.301,-607.094 158.138,-594.672 151.099,-583.961"/>
<polygon fill="black" stroke="black" points="153.936,-581.904 145.519,-575.469 148.086,-585.749 153.936,-581.904"/>
</g>
<!-- 6 -->
<g id="node5" class="node"><title>6</title>
<ellipse fill="#bcee68" stroke="black" cx="18" cy="-267.236" rx="18" ry="18"/>
<text text-anchor="middle" x="18" y="-263.536" font-family="Times,serif" font-size="14.00">6</text>
</g>
<!-- 0&#45;&gt;6 -->
<g id="edge3" class="edge"><title>0&#45;&gt;6</title>
<path fill="none" stroke="black" d="M182.07,-613.763C181.349,-594.662 177.734,-563.681 163,-541.984 146.795,-518.122 127.464,-528.144 109,-505.984 64.395,-452.452 71.108,-427.361 47,-361.984 38.6945,-339.461 30.7462,-313.33 25.2781,-294.387"/>
<polygon fill="black" stroke="black" points="28.6159,-293.328 22.5089,-284.671 21.884,-295.247 28.6159,-293.328"/>
</g>
<!-- 1 -->
<g id="node8" class="node"><title>1</title>
<ellipse fill="#fff68f" stroke="black" cx="44" cy="-487.984" rx="18" ry="18"/>
<text text-anchor="middle" x="44" y="-484.284" font-family="Times,serif" font-size="14.00">1</text>
</g>
<!-- 0&#45;&gt;1 -->
<g id="edge1" class="edge"><title>0&#45;&gt;1</title>
<path fill="none" stroke="black" d="M166.968,-622.04C151.427,-612.364 126.966,-595.899 109,-577.984 88.9737,-558.014 70.4036,-531.434 58.2846,-512.535"/>
<polygon fill="black" stroke="black" points="61.1629,-510.537 52.8753,-503.937 55.2379,-514.265 61.1629,-510.537"/>
</g>
<!-- 10 -->
<g id="node11" class="node"><title>10</title>
<ellipse fill="coral" stroke="black" cx="246" cy="-267.236" rx="22.9987" ry="22.9987"/>
<text text-anchor="middle" x="246" y="-263.536" font-family="Times,serif" font-size="14.00">10</text>
</g>
<!-- 0&#45;&gt;10 -->
<g id="edge4" class="edge"><title>0&#45;&gt;10</title>
<path fill="none" stroke="black" d="M197.703,-622.895C231.48,-604.245 308,-554.736 308,-488.984 308,-488.984 308,-488.984 308,-414.984 308,-370.062 283.043,-323.07 264.797,-294.718"/>
<polygon fill="black" stroke="black" points="267.59,-292.597 259.149,-286.194 261.755,-296.464 267.59,-292.597"/>
</g>
<!-- 3 -->
<g id="node3" class="node"><title>3</title>
<ellipse fill="dodgerblue" stroke="black" cx="136" cy="-487.984" rx="18" ry="18"/>
<text text-anchor="middle" x="136" y="-484.284" font-family="Times,serif" font-size="14.00">3</text>
</g>
<!-- 2&#45;&gt;3 -->
<g id="edge7" class="edge"><title>2&#45;&gt;3</title>
<path fill="none" stroke="black" d="M136,-541.68C136,-533.967 136,-524.696 136,-516.096"/>
<polygon fill="black" stroke="black" points="139.5,-516.088 136,-506.088 132.5,-516.088 139.5,-516.088"/>
</g>
<!-- 2&#45;&gt;6 -->
<g id="edge8" class="edge"><title>2&#45;&gt;6</title>
<path fill="none" stroke="black" d="M145.801,-544.415C152.088,-534.16 159.674,-519.841 163,-505.984 174.548,-457.873 161.553,-440.352 136,-397.984 133.236,-393.401 75.6057,-329.939 72,-325.984 60.54,-313.414 47.5214,-299.482 37.1385,-288.452"/>
<polygon fill="black" stroke="black" points="39.5116,-285.867 30.1039,-280.994 34.4195,-290.67 39.5116,-285.867"/>
</g>
<!-- 2&#45;&gt;1 -->
<g id="edge6" class="edge"><title>2&#45;&gt;1</title>
<path fill="none" stroke="black" d="M122.027,-548.352C107.167,-537.046 83.4543,-519.003 66.0659,-505.773"/>
<polygon fill="black" stroke="black" points="68.182,-502.985 58.1043,-499.715 63.9433,-508.556 68.182,-502.985"/>
</g>
<!-- 8 -->
<g id="node10" class="node"><title>8</title>
<ellipse fill="coral" stroke="black" cx="224" cy="-343.984" rx="18" ry="18"/>
<text text-anchor="middle" x="224" y="-340.284" font-family="Times,serif" font-size="14.00">8</text>
</g>
<!-- 2&#45;&gt;8 -->
<g id="edge9" class="edge"><title>2&#45;&gt;8</title>
<path fill="none" stroke="black" d="M150.444,-549.044C163.703,-539.324 183.178,-523.468 196,-505.984 216.708,-477.745 220.731,-468.239 228,-433.984 232.355,-413.464 230.973,-389.708 228.71,-371.903"/>
<polygon fill="black" stroke="black" points="232.163,-371.321 227.272,-361.923 225.234,-372.32 232.163,-371.321"/>
</g>
<!-- 12 -->
<g id="node14" class="node"><title>12</title>
<ellipse fill="#ff3030" stroke="black" cx="171" cy="-104.244" rx="22.9987" ry="22.9987"/>
<text text-anchor="middle" x="171" y="-100.544" font-family="Times,serif" font-size="14.00">12</text>
</g>
<!-- 2&#45;&gt;12 -->
<g id="edge10" class="edge"><title>2&#45;&gt;12</title>
<path fill="none" stroke="black" d="M154.254,-558.796C219.171,-557.079 435,-541.973 435,-416.984 435,-416.984 435,-416.984 435,-266.236 435,-216.529 429.505,-195.613 392,-162.992 338.312,-116.295 251.316,-106.688 204.077,-105.119"/>
<polygon fill="black" stroke="black" points="204.151,-101.62 194.073,-104.889 203.99,-108.618 204.151,-101.62"/>
</g>
<!-- 14 -->
<g id="node15" class="node"><title>14</title>
<ellipse fill="#ff3030" stroke="black" cx="171" cy="-22.748" rx="22.9987" ry="22.9987"/>
<text text-anchor="middle" x="171" y="-19.048" font-family="Times,serif" font-size="14.00">14</text>
</g>
<!-- 2&#45;&gt;14 -->
<g id="edge11" class="edge"><title>2&#45;&gt;14</title>
<path fill="none" stroke="black" d="M154.119,-559.636C224.117,-561.138 473,-556.659 473,-416.984 473,-416.984 473,-416.984 473,-184.74 473,-63.8706 282.294,-33.4375 203.973,-26.0355"/>
<polygon fill="black" stroke="black" points="203.966,-22.5216 193.699,-25.1369 203.356,-29.495 203.966,-22.5216"/>
</g>
<!-- 3&#45;&gt;0 -->
<g id="edge12" class="edge"><title>3&#45;&gt;0</title>
<path fill="none" stroke="black" d="M151.402,-497.368C165.97,-506.272 186.916,-521.839 196,-541.984 205.168,-562.316 199.78,-587.611 193.206,-606.031"/>
<polygon fill="black" stroke="black" points="189.892,-604.895 189.517,-615.483 196.413,-607.44 189.892,-604.895"/>
</g>
<!-- 5 -->
<g id="node4" class="node"><title>5</title>
<ellipse fill="#bcee68" stroke="black" cx="109" cy="-415.984" rx="18" ry="18"/>
<text text-anchor="middle" x="109" y="-412.284" font-family="Times,serif" font-size="14.00">5</text>
</g>
<!-- 3&#45;&gt;5 -->
<g id="edge13" class="edge"><title>3&#45;&gt;5</title>
<path fill="none" stroke="black" d="M129.738,-470.749C126.5,-462.355 122.475,-451.918 118.834,-442.479"/>
<polygon fill="black" stroke="black" points="122.093,-441.202 115.228,-433.131 115.562,-443.721 122.093,-441.202"/>
</g>
<!-- 9 -->
<g id="node9" class="node"><title>9</title>
<ellipse fill="indigo" stroke="black" cx="201" cy="-415.984" rx="18" ry="18"/>
<text text-anchor="middle" x="201" y="-412.284" font-family="Times,serif" font-size="14.00">9</text>
</g>
<!-- 3&#45;&gt;9 -->
<g id="edge14" class="edge"><title>3&#45;&gt;9</title>
<path fill="none" stroke="black" d="M147.922,-474.145C157.543,-463.784 171.25,-449.022 182.325,-437.095"/>
<polygon fill="black" stroke="black" points="184.914,-439.451 189.154,-429.742 179.784,-434.688 184.914,-439.451"/>
</g>
<!-- 3&#45;&gt;12 -->
<g id="edge15" class="edge"><title>3&#45;&gt;12</title>
<path fill="none" stroke="black" d="M153.94,-485.758C212.907,-480.667 397,-455.891 397,-344.984 397,-344.984 397,-344.984 397,-266.236 397,-217.785 396.825,-196.678 362,-162.992 318.617,-121.027 245.812,-109.435 203.73,-106.311"/>
<polygon fill="black" stroke="black" points="203.929,-102.817 193.73,-105.686 203.492,-109.803 203.929,-102.817"/>
</g>
<!-- 5&#45;&gt;6 -->
<g id="edge18" class="edge"><title>5&#45;&gt;6</title>
<path fill="none" stroke="black" d="M94.5524,-404.608C84.6748,-394.053 72.6289,-377.138 63,-361.984 48.7611,-339.574 33.7822,-313.328 24.7373,-294.316"/>
<polygon fill="black" stroke="black" points="27.881,-292.773 20.5837,-285.092 21.4983,-295.647 27.881,-292.773"/>
</g>
<!-- 7 -->
<g id="node6" class="node"><title>7</title>
<ellipse fill="#bcee68" stroke="black" cx="132" cy="-343.984" rx="18" ry="18"/>
<text text-anchor="middle" x="132" y="-340.284" font-family="Times,serif" font-size="14.00">7</text>
</g>
<!-- 5&#45;&gt;7 -->
<g id="edge19" class="edge"><title>5&#45;&gt;7</title>
<path fill="none" stroke="black" d="M108.77,-397.68C110.748,-388.906 114.123,-378.119 117.821,-368.594"/>
<polygon fill="black" stroke="black" points="121.094,-369.838 121.745,-359.263 114.642,-367.124 121.094,-369.838"/>
</g>
<!-- 5&#45;&gt;12 -->
<g id="edge20" class="edge"><title>5&#45;&gt;12</title>
<path fill="none" stroke="black" d="M123.536,-404.697C135.605,-395.187 151.901,-379.853 159,-361.984 192.242,-278.306 89.5508,-247.36 121,-162.992 126.168,-149.129 136.327,-136.382 146.146,-126.41"/>
<polygon fill="black" stroke="black" points="148.708,-128.803 153.5,-119.354 143.861,-123.752 148.708,-128.803"/>
</g>
<!-- 6&#45;&gt;5 -->
<g id="edge22" class="edge"><title>6&#45;&gt;5</title>
<path fill="none" stroke="black" d="M30.5295,-280.572C43.5379,-298.693 62.8689,-333.448 81,-361.984 86.8065,-371.122 93.4919,-380.901 99.0871,-389.539"/>
<polygon fill="black" stroke="black" points="96.1547,-391.451 104.441,-398.053 102.081,-387.725 96.1547,-391.451"/>
</g>
<!-- 4 -->
<g id="node7" class="node"><title>4</title>
<ellipse fill="peachpuff" stroke="black" cx="148" cy="-185.74" rx="18" ry="18"/>
<text text-anchor="middle" x="148" y="-182.04" font-family="Times,serif" font-size="14.00">4</text>
</g>
<!-- 6&#45;&gt;4 -->
<g id="edge21" class="edge"><title>6&#45;&gt;4</title>
<path fill="none" stroke="black" d="M32.9127,-257.117C55.2251,-243.472 97.5169,-217.611 124.151,-201.324"/>
<polygon fill="black" stroke="black" points="126.155,-204.201 132.861,-195.998 122.504,-198.229 126.155,-204.201"/>
</g>
<!-- 7&#45;&gt;5 -->
<g id="edge23" class="edge"><title>7&#45;&gt;5</title>
<path fill="none" stroke="black" d="M132.273,-362.097C130.298,-370.918 126.893,-381.813 123.162,-391.418"/>
<polygon fill="black" stroke="black" points="119.859,-390.244 119.203,-400.818 126.31,-392.961 119.859,-390.244"/>
</g>
<!-- 7&#45;&gt;6 -->
<g id="edge24" class="edge"><title>7&#45;&gt;6</title>
<path fill="none" stroke="black" d="M117.119,-333.512C100.638,-322.987 73.3125,-305.437 50,-289.984 47.0554,-288.032 43.97,-285.964 40.926,-283.91"/>
<polygon fill="black" stroke="black" points="42.8485,-280.985 32.6081,-278.268 38.9188,-286.778 42.8485,-280.985"/>
</g>
<!-- 13 -->
<g id="node13" class="node"><title>13</title>
<ellipse fill="#9aff9a" stroke="black" cx="245" cy="-185.74" rx="22.9987" ry="22.9987"/>
<text text-anchor="middle" x="245" y="-182.04" font-family="Times,serif" font-size="14.00">13</text>
</g>
<!-- 7&#45;&gt;13 -->
<g id="edge26" class="edge"><title>7&#45;&gt;13</title>
<path fill="none" stroke="black" d="M142.227,-328.843C161.178,-302.639 202.011,-246.18 226.113,-212.855"/>
<polygon fill="black" stroke="black" points="229.121,-214.667 232.146,-204.513 223.449,-210.565 229.121,-214.667"/>
</g>
<!-- 7&#45;&gt;12 -->
<g id="edge25" class="edge"><title>7&#45;&gt;12</title>
<path fill="none" stroke="black" d="M122.018,-328.626C101.387,-297.021 58.3559,-219.73 88,-162.992 99.057,-141.829 121.796,-126.852 140.681,-117.462"/>
<polygon fill="black" stroke="black" points="142.27,-120.583 149.848,-113.179 139.307,-114.241 142.27,-120.583"/>
</g>
<!-- 7&#45;&gt;14 -->
<g id="edge27" class="edge"><title>7&#45;&gt;14</title>
<path fill="none" stroke="black" d="M123.123,-327.974C105.944,-296.994 71.2575,-223.779 88,-162.992 100.071,-119.167 129.95,-75.2134 150.361,-48.7392"/>
<polygon fill="black" stroke="black" points="153.19,-50.8041 156.621,-40.7802 147.688,-46.4767 153.19,-50.8041"/>
</g>
<!-- 4&#45;&gt;12 -->
<g id="edge16" class="edge"><title>4&#45;&gt;12</title>
<path fill="none" stroke="black" d="M152.766,-168.268C155.465,-158.937 158.93,-146.962 162.112,-135.962"/>
<polygon fill="black" stroke="black" points="165.509,-136.817 164.926,-126.238 158.785,-134.871 165.509,-136.817"/>
</g>
<!-- 4&#45;&gt;14 -->
<g id="edge17" class="edge"><title>4&#45;&gt;14</title>
<path fill="none" stroke="black" d="M162.437,-174.76C175.829,-164.54 194.875,-147.303 203,-126.992 210.51,-108.218 208.061,-101.073 203,-81.496 200.195,-70.6476 194.866,-59.6636 189.35,-50.2294"/>
<polygon fill="black" stroke="black" points="192.319,-48.3755 184.08,-41.7142 186.366,-52.0594 192.319,-48.3755"/>
</g>
<!-- 1&#45;&gt;9 -->
<g id="edge5" class="edge"><title>1&#45;&gt;9</title>
<path fill="none" stroke="black" d="M60.2104,-479.756C87.4749,-467.6 142.718,-442.969 175.311,-428.438"/>
<polygon fill="black" stroke="black" points="176.935,-431.546 184.643,-424.277 174.084,-425.153 176.935,-431.546"/>
</g>
<!-- 9&#45;&gt;8 -->
<g id="edge31" class="edge"><title>9&#45;&gt;8</title>
<path fill="none" stroke="black" d="M206.334,-398.749C209.024,-390.562 212.353,-380.432 215.393,-371.179"/>
<polygon fill="black" stroke="black" points="218.738,-372.21 218.535,-361.617 212.088,-370.025 218.738,-372.21"/>
</g>
<!-- 9&#45;&gt;10 -->
<g id="edge32" class="edge"><title>9&#45;&gt;10</title>
<path fill="none" stroke="black" d="M215.536,-404.697C227.605,-395.187 243.901,-379.853 251,-361.984 258.87,-342.174 257.394,-318.138 254.067,-299.364"/>
<polygon fill="black" stroke="black" points="257.492,-298.641 252.076,-289.535 250.631,-300.031 257.492,-298.641"/>
</g>
<!-- 8&#45;&gt;10 -->
<g id="edge28" class="edge"><title>8&#45;&gt;10</title>
<path fill="none" stroke="black" d="M228.883,-326.395C231.244,-318.372 234.157,-308.476 236.906,-299.136"/>
<polygon fill="black" stroke="black" points="240.324,-299.915 239.79,-289.334 233.609,-297.939 240.324,-299.915"/>
</g>
<!-- 11 -->
<g id="node12" class="node"><title>11</title>
<ellipse fill="coral" stroke="black" cx="308" cy="-185.74" rx="22.9987" ry="22.9987"/>
<text text-anchor="middle" x="308" y="-182.04" font-family="Times,serif" font-size="14.00">11</text>
</g>
<!-- 8&#45;&gt;11 -->
<g id="edge29" class="edge"><title>8&#45;&gt;11</title>
<path fill="none" stroke="black" d="M234.779,-329.073C245.167,-319.318 259.834,-305.318 269,-289.984 282.58,-267.266 290.32,-238.039 296.053,-216.484"/>
<polygon fill="black" stroke="black" points="299.499,-217.148 298.723,-206.581 292.74,-215.326 299.499,-217.148"/>
</g>
<!-- 8&#45;&gt;12 -->
<g id="edge30" class="edge"><title>8&#45;&gt;12</title>
<path fill="none" stroke="black" d="M240.78,-336.816C260.267,-328.843 292.142,-313.173 311,-289.984 347.527,-245.068 373.674,-210.085 340,-162.992 309.041,-119.697 243.613,-108.499 203.862,-105.82"/>
<polygon fill="black" stroke="black" points="204.035,-102.325 193.864,-105.289 203.664,-109.315 204.035,-102.325"/>
</g>
<!-- 10&#45;&gt;11 -->
<g id="edge33" class="edge"><title>10&#45;&gt;11</title>
<path fill="none" stroke="black" d="M259.76,-248.593C268.085,-237.919 278.842,-224.126 288.086,-212.274"/>
<polygon fill="black" stroke="black" points="291.102,-214.098 294.492,-204.06 285.582,-209.793 291.102,-214.098"/>
</g>
<!-- 10&#45;&gt;13 -->
<g id="edge35" class="edge"><title>10&#45;&gt;13</title>
<path fill="none" stroke="black" d="M245.721,-244.092C245.622,-236.188 245.508,-227.12 245.4,-218.562"/>
<polygon fill="black" stroke="black" points="248.899,-218.446 245.274,-208.49 241.9,-218.534 248.899,-218.446"/>
</g>
<!-- 10&#45;&gt;12 -->
<g id="edge34" class="edge"><title>10&#45;&gt;12</title>
<path fill="none" stroke="black" d="M234.504,-247.59C227.845,-236.442 219.516,-221.883 213,-208.488 201.288,-184.412 189.968,-156.203 182.036,-135.36"/>
<polygon fill="black" stroke="black" points="185.226,-133.898 178.428,-125.771 178.674,-136.363 185.226,-133.898"/>
</g>
<!-- 11&#45;&gt;8 -->
<g id="edge36" class="edge"><title>11&#45;&gt;8</title>
<path fill="none" stroke="black" d="M311.804,-208.184C310.309,-230.004 302.419,-264.189 287,-289.984 277.491,-305.893 262.06,-320.365 248.617,-330.151"/>
<polygon fill="black" stroke="black" points="246.477,-327.373 240.152,-335.874 250.397,-333.173 246.477,-327.373"/>
</g>
<!-- 12&#45;&gt;14 -->
<g id="edge37" class="edge"><title>12&#45;&gt;14</title>
<path fill="none" stroke="black" d="M164.943,-81.9405C164.275,-73.6764 164.09,-64.0455 164.388,-55.025"/>
<polygon fill="black" stroke="black" points="167.894,-55.0151 164.96,-44.8346 160.905,-54.6227 167.894,-55.0151"/>
</g>
<!-- 14&#45;&gt;12 -->
<g id="edge38" class="edge"><title>14&#45;&gt;12</title>
<path fill="none" stroke="black" d="M177.04,-44.8346C177.716,-53.0746 177.909,-62.6987 177.62,-71.7298"/>
<polygon fill="black" stroke="black" points="174.113,-71.7632 177.057,-81.9405 181.102,-72.148 174.113,-71.7632"/>
</g>
</g>
</svg>
