<?xml version="1.0" encoding="UTF-8" standalone="no"?>
<!DOCTYPE svg PUBLIC "-//W3C//DTD SVG 1.1//EN"
 "http://www.w3.org/Graphics/SVG/1.1/DTD/svg11.dtd">
<!-- Generated by graphviz version 2.38.0 (20140413.2041)
 -->
<!-- Title: htree Pages: 1 -->
<svg width="99pt" height="260pt"
 viewBox="0.00 0.00 99.31 260.00" xmlns="http://www.w3.org/2000/svg" xmlns:xlink="http://www.w3.org/1999/xlink">
<g id="graph0" class="graph" transform="scale(1 1) rotate(0) translate(4 256)">
<title>htree</title>
<!-- 0 -->
<g id="node1" class="node"><title>0</title>
<ellipse fill="plum" stroke="black" cx="60" cy="-234" rx="18" ry="18"/>
<text text-anchor="middle" x="60" y="-230.3" font-family="Times,serif" font-size="14.00">0</text>
</g>
<!-- 2 -->
<g id="node2" class="node"><title>2</title>
<ellipse fill="plum" stroke="black" cx="60" cy="-162" rx="18" ry="18"/>
<text text-anchor="middle" x="60" y="-158.3" font-family="Times,serif" font-size="14.00">2</text>
</g>
<!-- 0&#45;&gt;2 -->
<g id="edge1" class="edge"><title>0&#45;&gt;2</title>
<path fill="none" stroke="black" d="M60,-215.697C60,-207.983 60,-198.712 60,-190.112"/>
<polygon fill="black" stroke="black" points="63.5001,-190.104 60,-180.104 56.5001,-190.104 63.5001,-190.104"/>
</g>
<!-- 3 -->
<g id="node3" class="node"><title>3</title>
<ellipse fill="plum" stroke="black" cx="18" cy="-90" rx="18" ry="18"/>
<text text-anchor="middle" x="18" y="-86.3" font-family="Times,serif" font-size="14.00">3</text>
</g>
<!-- 0&#45;&gt;3 -->
<g id="edge2" class="edge"><title>0&#45;&gt;3</title>
<path fill="none" stroke="black" d="M50.9281,-218.224C44.9668,-207.875 37.4702,-193.531 33,-180 26.334,-159.822 22.521,-136.045 20.4091,-118.145"/>
<polygon fill="black" stroke="black" points="23.8782,-117.669 19.3285,-108.101 16.9183,-118.418 23.8782,-117.669"/>
</g>
<!-- 2&#45;&gt;3 -->
<g id="edge5" class="edge"><title>2&#45;&gt;3</title>
<path fill="none" stroke="black" d="M51.0929,-146.155C45.5802,-136.967 38.3809,-124.968 32.1055,-114.509"/>
<polygon fill="black" stroke="black" points="35.0405,-112.598 26.8943,-105.824 29.0381,-116.199 35.0405,-112.598"/>
</g>
<!-- 1 -->
<g id="node4" class="node"><title>1</title>
<ellipse fill="plum" stroke="black" cx="64" cy="-18" rx="18" ry="18"/>
<text text-anchor="middle" x="64" y="-14.3" font-family="Times,serif" font-size="14.00">1</text>
</g>
<!-- 3&#45;&gt;1 -->
<g id="edge3" class="edge"><title>3&#45;&gt;1</title>
<path fill="none" stroke="black" d="M27.5312,-74.496C33.699,-65.1102 41.8619,-52.6883 48.901,-41.9768"/>
<polygon fill="black" stroke="black" points="51.9141,-43.7647 54.481,-33.4855 46.0642,-39.9204 51.9141,-43.7647"/>
</g>
<!-- 1&#45;&gt;0 -->
<g id="edge4" class="edge"><title>1&#45;&gt;0</title>
<path fill="none" stroke="black" d="M70.2948,-35.1841C80.7871,-64.4168 99.5217,-127.835 87,-180 84.5313,-190.285 79.7161,-200.823 74.8272,-209.767"/>
<polygon fill="black" stroke="black" points="71.7912,-208.025 69.8011,-218.431 77.8462,-211.538 71.7912,-208.025"/>
</g>
<!-- 1&#45;&gt;2 -->
<g id="edge6" class="edge"><title>1&#45;&gt;2</title>
<path fill="none" stroke="black" d="M63.5158,-36.1893C62.8331,-60.4244 61.5806,-104.888 60.7696,-133.679"/>
<polygon fill="black" stroke="black" points="57.2656,-133.777 60.4825,-143.871 64.2628,-133.974 57.2656,-133.777"/>
</g>
</g>
</svg>
