<?xml version="1.0" encoding="UTF-8" standalone="no"?>
<!DOCTYPE svg PUBLIC "-//W3C//DTD SVG 1.1//EN"
 "http://www.w3.org/Graphics/SVG/1.1/DTD/svg11.dtd">
<!-- Generated by graphviz version 2.38.0 (20140413.2041)
 -->
<!-- Title: rgraph Pages: 1 -->
<svg width="436pt" height="432pt"
 viewBox="0.00 0.00 435.64 432.49" xmlns="http://www.w3.org/2000/svg" xmlns:xlink="http://www.w3.org/1999/xlink">
<g id="graph0" class="graph" transform="scale(1 1) rotate(0) translate(4 428.488)">
<title>rgraph</title>
<!-- 1 -->
<g id="node1" class="node"><title>1</title>
<ellipse fill="dodgerblue" stroke="black" cx="102" cy="-406.488" rx="18" ry="18"/>
<text text-anchor="middle" x="102" y="-402.788" font-family="Times,serif" font-size="14.00">1</text>
</g>
<!-- 2 -->
<g id="node2" class="node"><title>2</title>
<ellipse fill="dodgerblue" stroke="black" cx="18" cy="-334.488" rx="18" ry="18"/>
<text text-anchor="middle" x="18" y="-330.788" font-family="Times,serif" font-size="14.00">2</text>
</g>
<!-- 1&#45;&#45;2 -->
<g id="edge4" class="edge"><title>1&#45;&#45;2</title>
<path fill="none" stroke="black" d="M88.5039,-394.241C72.8286,-381.178 47.1236,-359.758 31.4626,-346.707"/>
</g>
<!-- 6 -->
<g id="node6" class="node"><title>6</title>
<ellipse fill="dodgerblue" stroke="black" cx="339" cy="-257.74" rx="18" ry="18"/>
<text text-anchor="middle" x="339" y="-254.04" font-family="Times,serif" font-size="14.00">6</text>
</g>
<!-- 1&#45;&#45;6 -->
<g id="edge6" class="edge"><title>1&#45;&#45;6</title>
<path fill="none" stroke="black" d="M108.293,-389.279C117.007,-369.041 134.708,-334.853 161,-316.488 217.56,-276.981 250.059,-310.873 312,-280.488 317.08,-277.996 322.069,-274.402 326.35,-270.851"/>
</g>
<!-- 8 -->
<g id="node8" class="node"><title>8</title>
<ellipse fill="dodgerblue" stroke="black" cx="263" cy="-180.992" rx="18" ry="18"/>
<text text-anchor="middle" x="263" y="-177.292" font-family="Times,serif" font-size="14.00">8</text>
</g>
<!-- 1&#45;&#45;8 -->
<g id="edge11" class="edge"><title>1&#45;&#45;8</title>
<path fill="none" stroke="black" d="M96.9984,-388.961C88.12,-356.022 73.5897,-281.378 108,-234.992 124.774,-212.38 208.323,-193.041 245.32,-185.439"/>
</g>
<!-- 10 -->
<g id="node10" class="node"><title>10</title>
<ellipse fill="dodgerblue" stroke="black" cx="140" cy="-257.74" rx="22.9987" ry="22.9987"/>
<text text-anchor="middle" x="140" y="-254.04" font-family="Times,serif" font-size="14.00">10</text>
</g>
<!-- 1&#45;&#45;10 -->
<g id="edge14" class="edge"><title>1&#45;&#45;10</title>
<path fill="none" stroke="black" d="M106.446,-388.787C109.215,-378.357 112.838,-364.646 116,-352.488 122.47,-327.611 129.779,-298.983 134.613,-279.974"/>
</g>
<!-- 12 -->
<g id="node12" class="node"><title>12</title>
<ellipse fill="dodgerblue" stroke="black" cx="333" cy="-104.244" rx="22.9987" ry="22.9987"/>
<text text-anchor="middle" x="333" y="-100.544" font-family="Times,serif" font-size="14.00">12</text>
</g>
<!-- 1&#45;&#45;12 -->
<g id="edge19" class="edge"><title>1&#45;&#45;12</title>
<path fill="none" stroke="black" d="M120.228,-406.008C180.567,-406.585 372.508,-398.902 417,-280.488 435.537,-231.153 428.218,-208.122 401,-162.992 389.081,-143.23 368.001,-126.91 352.461,-116.719"/>
</g>
<!-- 2&#45;&#45;6 -->
<g id="edge7" class="edge"><title>2&#45;&#45;6</title>
<path fill="none" stroke="black" d="M32.8179,-324.22C38.069,-321.318 44.1334,-318.383 50,-316.488 161.848,-280.359 204.077,-327.05 312,-280.488 317.195,-278.247 322.215,-274.719 326.489,-271.152"/>
</g>
<!-- 11 -->
<g id="node11" class="node"><title>11</title>
<ellipse fill="dodgerblue" stroke="black" cx="268" cy="-104.244" rx="22.9987" ry="22.9987"/>
<text text-anchor="middle" x="268" y="-100.544" font-family="Times,serif" font-size="14.00">11</text>
</g>
<!-- 2&#45;&#45;11 -->
<g id="edge17" class="edge"><title>2&#45;&#45;11</title>
<path fill="none" stroke="black" d="M36.0602,-331.395C105.913,-323.215 355.047,-293.235 366,-280.488 411.662,-227.345 325.206,-149.62 285.95,-118.676"/>
</g>
<!-- 3 -->
<g id="node3" class="node"><title>3</title>
<ellipse fill="dodgerblue" stroke="black" cx="188" cy="-334.488" rx="18" ry="18"/>
<text text-anchor="middle" x="188" y="-330.788" font-family="Times,serif" font-size="14.00">3</text>
</g>
<!-- 5 -->
<g id="node5" class="node"><title>5</title>
<ellipse fill="dodgerblue" stroke="black" cx="43" cy="-257.74" rx="18" ry="18"/>
<text text-anchor="middle" x="43" y="-254.04" font-family="Times,serif" font-size="14.00">5</text>
</g>
<!-- 3&#45;&#45;5 -->
<g id="edge5" class="edge"><title>3&#45;&#45;5</title>
<path fill="none" stroke="black" d="M172.206,-325.346C144.314,-310.968 86.6522,-281.243 58.7741,-266.872"/>
</g>
<!-- 3&#45;&#45;10 -->
<g id="edge15" class="edge"><title>3&#45;&#45;10</title>
<path fill="none" stroke="black" d="M178.517,-318.72C170.867,-306.807 160.065,-289.985 151.846,-277.187"/>
</g>
<!-- 3&#45;&#45;12 -->
<g id="edge20" class="edge"><title>3&#45;&#45;12</title>
<path fill="none" stroke="black" d="M195.578,-317.815C205.824,-297.498 225.432,-261.534 248,-234.992 263.926,-216.262 275.198,-218.622 290,-198.992 306.926,-176.546 319.264,-146.371 326.276,-126.39"/>
</g>
<!-- 14 -->
<g id="node15" class="node"><title>14</title>
<ellipse fill="plum" stroke="black" cx="280" cy="-257.74" rx="22.9987" ry="22.9987"/>
<text text-anchor="middle" x="280" y="-254.04" font-family="Times,serif" font-size="14.00">14</text>
</g>
<!-- 3&#45;&#45;14 -->
<g id="edge26" class="edge"><title>3&#45;&#45;14</title>
<path fill="none" stroke="black" d="M201.575,-322.459C217.769,-309.301 244.873,-287.28 262.594,-272.882"/>
</g>
<!-- 4 -->
<g id="node4" class="node"><title>4</title>
<ellipse fill="dodgerblue" stroke="black" cx="327" cy="-334.488" rx="18" ry="18"/>
<text text-anchor="middle" x="327" y="-330.788" font-family="Times,serif" font-size="14.00">4</text>
</g>
<!-- 4&#45;&#45;6 -->
<g id="edge8" class="edge"><title>4&#45;&#45;6</title>
<path fill="none" stroke="black" d="M329.723,-316.526C331.687,-304.293 334.326,-287.852 336.288,-275.634"/>
</g>
<!-- 4&#45;&#45;12 -->
<g id="edge21" class="edge"><title>4&#45;&#45;12</title>
<path fill="none" stroke="black" d="M343.445,-326.822C360.874,-318.754 387.444,-303.343 399,-280.488 427.311,-224.493 375.422,-153.324 348.168,-121.686"/>
</g>
<!-- 13 -->
<g id="node13" class="node"><title>13</title>
<ellipse fill="dodgerblue" stroke="black" cx="217" cy="-22.748" rx="22.9987" ry="22.9987"/>
<text text-anchor="middle" x="217" y="-19.048" font-family="Times,serif" font-size="14.00">13</text>
</g>
<!-- 4&#45;&#45;13 -->
<g id="edge2" class="edge"><title>4&#45;&#45;13</title>
<path fill="none" stroke="black" stroke-width="3" stroke-dasharray="5,2" d="M310.332,-327.182C291.855,-319.26 262.722,-303.812 248,-280.488 200.432,-205.125 207.993,-92.2735 213.79,-45.3806"/>
</g>
<!-- 4&#45;&#45;14 -->
<g id="edge3" class="edge"><title>4&#45;&#45;14</title>
<path fill="none" stroke="black" stroke-width="3" stroke-dasharray="5,2" d="M317.714,-318.72C310.277,-306.892 299.798,-290.226 291.772,-277.462"/>
</g>
<!-- 7 -->
<g id="node7" class="node"><title>7</title>
<ellipse fill="dodgerblue" stroke="black" cx="171" cy="-104.244" rx="18" ry="18"/>
<text text-anchor="middle" x="171" y="-100.544" font-family="Times,serif" font-size="14.00">7</text>
</g>
<!-- 5&#45;&#45;7 -->
<g id="edge10" class="edge"><title>5&#45;&#45;7</title>
<path fill="none" stroke="black" d="M57.3424,-246.276C62.7546,-242.52 69.0444,-238.379 75,-234.992 107.838,-216.315 128.638,-228.68 152,-198.992 169.458,-176.806 172.108,-142.745 171.919,-122.364"/>
</g>
<!-- 5&#45;&#45;8 -->
<g id="edge12" class="edge"><title>5&#45;&#45;8</title>
<path fill="none" stroke="black" d="M56.7497,-245.963C62.1986,-242.083 68.6673,-237.941 75,-234.992 106.048,-220.532 205.151,-195.893 245.578,-186.142"/>
</g>
<!-- 6&#45;&#45;8 -->
<g id="edge13" class="edge"><title>6&#45;&#45;8</title>
<path fill="none" stroke="black" d="M326.45,-244.397C312.369,-230.547 289.658,-208.21 275.568,-194.353"/>
</g>
<!-- 6&#45;&#45;13 -->
<g id="edge23" class="edge"><title>6&#45;&#45;13</title>
<path fill="none" stroke="black" d="M347.69,-241.573C365.014,-209.113 399.356,-131.78 365,-81.496 336.682,-40.0487 273.824,-28.3466 239.851,-25.0445"/>
</g>
<!-- 7&#45;&#45;13 -->
<g id="edge24" class="edge"><title>7&#45;&#45;13</title>
<path fill="none" stroke="black" d="M179.652,-88.2914C187.096,-75.428 197.877,-56.7962 205.944,-42.854"/>
</g>
<!-- 8&#45;&#45;11 -->
<g id="edge18" class="edge"><title>8&#45;&#45;11</title>
<path fill="none" stroke="black" d="M264.16,-162.655C264.869,-152.046 265.784,-138.378 266.542,-127.04"/>
</g>
<!-- 8&#45;&#45;12 -->
<g id="edge22" class="edge"><title>8&#45;&#45;12</title>
<path fill="none" stroke="black" d="M274.875,-167.312C286.733,-154.65 305.001,-135.142 317.886,-121.383"/>
</g>
<!-- 9 -->
<g id="node9" class="node"><title>9</title>
<ellipse fill="dodgerblue" stroke="black" cx="261" cy="-334.488" rx="18" ry="18"/>
<text text-anchor="middle" x="261" y="-330.788" font-family="Times,serif" font-size="14.00">9</text>
</g>
<!-- 9&#45;&#45;10 -->
<g id="edge16" class="edge"><title>9&#45;&#45;10</title>
<path fill="none" stroke="black" d="M245.675,-324.021C223.672,-310.429 183.148,-285.395 159.183,-270.59"/>
</g>
<!-- 9&#45;&#45;14 -->
<g id="edge27" class="edge"><title>9&#45;&#45;14</title>
<path fill="none" stroke="black" d="M265.217,-316.899C267.972,-306.06 271.596,-291.802 274.566,-280.116"/>
</g>
<!-- 11&#45;&#45;13 -->
<g id="edge25" class="edge"><title>11&#45;&#45;13</title>
<path fill="none" stroke="black" d="M256.171,-84.8062C247.991,-72.0551 237.146,-55.15 228.941,-42.3612"/>
</g>
<!-- 0 -->
<g id="node14" class="node"><title>0</title>
<ellipse fill="plum" stroke="black" cx="125" cy="-180.992" rx="18" ry="18"/>
<text text-anchor="middle" x="125" y="-177.292" font-family="Times,serif" font-size="14.00">0</text>
</g>
<!-- 0&#45;&#45;7 -->
<g id="edge9" class="edge"><title>0&#45;&#45;7</title>
<path fill="none" stroke="black" d="M134.088,-165.224C142.153,-152.12 153.872,-133.076 161.931,-119.981"/>
</g>
<!-- 0&#45;&#45;13 -->
<g id="edge1" class="edge"><title>0&#45;&#45;13</title>
<path fill="none" stroke="black" stroke-width="3" stroke-dasharray="5,2" d="M124.787,-162.679C125.292,-141.93 128.625,-106.797 144,-81.496 156.756,-60.505 180.099,-44.0824 196.961,-34.2034"/>
</g>
</g>
</svg>
