<?xml version="1.0" encoding="UTF-8" standalone="no"?>
<!DOCTYPE svg PUBLIC "-//W3C//DTD SVG 1.1//EN"
 "http://www.w3.org/Graphics/SVG/1.1/DTD/svg11.dtd">
<!-- Generated by graphviz version 2.38.0 (20140413.2041)
 -->
<!-- Title: rgraph Pages: 1 -->
<svg width="526pt" height="802pt"
 viewBox="0.00 0.00 526.00 801.98" xmlns="http://www.w3.org/2000/svg" xmlns:xlink="http://www.w3.org/1999/xlink">
<g id="graph0" class="graph" transform="scale(1 1) rotate(0) translate(4 797.984)">
<title>rgraph</title>
<!-- 0 -->
<g id="node1" class="node"><title>0</title>
<ellipse fill="plum" stroke="black" cx="366" cy="-775.984" rx="18" ry="18"/>
<text text-anchor="middle" x="366" y="-772.284" font-family="Times,serif" font-size="14.00">0</text>
</g>
<!-- 1 -->
<g id="node2" class="node"><title>1</title>
<ellipse fill="plum" stroke="black" cx="80" cy="-559.984" rx="18" ry="18"/>
<text text-anchor="middle" x="80" y="-556.284" font-family="Times,serif" font-size="14.00">1</text>
</g>
<!-- 0&#45;&gt;1 -->
<g id="edge1" class="edge"><title>0&#45;&gt;1</title>
<path fill="none" stroke="black" stroke-width="3" stroke-dasharray="5,2" d="M348.106,-772.331C316.722,-767.015 250.657,-752.825 204,-721.984 151.002,-686.952 111.21,-621.545 92.2675,-585.827"/>
<polygon fill="black" stroke="black" stroke-width="3" points="95.1907,-583.86 87.4841,-576.59 88.9747,-587.079 95.1907,-583.86"/>
</g>
<!-- 2 -->
<g id="node3" class="node"><title>2</title>
<ellipse fill="plum" stroke="black" cx="168" cy="-631.984" rx="18" ry="18"/>
<text text-anchor="middle" x="168" y="-628.284" font-family="Times,serif" font-size="14.00">2</text>
</g>
<!-- 0&#45;&gt;2 -->
<g id="edge2" class="edge"><title>0&#45;&gt;2</title>
<path fill="none" stroke="black" stroke-width="3" stroke-dasharray="5,2" d="M348.547,-770.156C323.637,-762.685 277.231,-746.568 244,-721.984 219.211,-703.646 197.104,-675.773 183.211,-656.115"/>
<polygon fill="black" stroke="black" stroke-width="3" points="185.984,-653.97 177.426,-647.724 180.221,-657.944 185.984,-653.97"/>
</g>
<!-- 3 -->
<g id="node4" class="node"><title>3</title>
<ellipse fill="plum" stroke="black" cx="271" cy="-703.984" rx="18" ry="18"/>
<text text-anchor="middle" x="271" y="-700.284" font-family="Times,serif" font-size="14.00">3</text>
</g>
<!-- 0&#45;&gt;3 -->
<g id="edge3" class="edge"><title>0&#45;&gt;3</title>
<path fill="none" stroke="black" stroke-width="3" stroke-dasharray="5,2" d="M351.982,-764.655C336.547,-753.282 311.514,-734.836 293.361,-721.461"/>
<polygon fill="black" stroke="black" stroke-width="3" points="295.202,-718.469 285.075,-715.355 291.049,-724.105 295.202,-718.469"/>
</g>
<!-- 5 -->
<g id="node7" class="node"><title>5</title>
<ellipse fill="plum" stroke="black" cx="73" cy="-339.236" rx="18" ry="18"/>
<text text-anchor="middle" x="73" y="-335.536" font-family="Times,serif" font-size="14.00">5</text>
</g>
<!-- 0&#45;&gt;5 -->
<g id="edge15" class="edge"><title>0&#45;&gt;5</title>
<path fill="none" stroke="black" d="M358.795,-759.289C337.165,-712.902 269.597,-573.232 194,-469.984 162.804,-427.377 119.123,-383.645 93.671,-359.405"/>
<polygon fill="black" stroke="black" points="95.7613,-356.565 86.0869,-352.246 90.9562,-361.655 95.7613,-356.565"/>
</g>
<!-- 7 -->
<g id="node8" class="node"><title>7</title>
<ellipse fill="plum" stroke="black" cx="142" cy="-339.236" rx="18" ry="18"/>
<text text-anchor="middle" x="142" y="-335.536" font-family="Times,serif" font-size="14.00">7</text>
</g>
<!-- 0&#45;&gt;7 -->
<g id="edge16" class="edge"><title>0&#45;&gt;7</title>
<path fill="none" stroke="black" d="M371.998,-758.757C385.515,-719.401 414.579,-616.628 380,-541.984 335.187,-445.25 218.605,-378.009 167.095,-352.089"/>
<polygon fill="black" stroke="black" points="168.5,-348.879 157.983,-347.595 165.404,-355.157 168.5,-348.879"/>
</g>
<!-- 10 -->
<g id="node11" class="node"><title>10</title>
<ellipse fill="plum" stroke="black" cx="277" cy="-339.236" rx="22.9987" ry="22.9987"/>
<text text-anchor="middle" x="277" y="-335.536" font-family="Times,serif" font-size="14.00">10</text>
</g>
<!-- 0&#45;&gt;10 -->
<g id="edge17" class="edge"><title>0&#45;&gt;10</title>
<path fill="none" stroke="black" d="M383.338,-770.471C404.804,-763.848 440.432,-749.218 456,-721.984 495.701,-652.53 484.396,-616.775 456,-541.984 425.213,-460.895 345.259,-391.525 303.412,-359.371"/>
<polygon fill="black" stroke="black" points="305.421,-356.503 295.333,-353.264 301.2,-362.086 305.421,-356.503"/>
</g>
<!-- 14 -->
<g id="node15" class="node"><title>14</title>
<ellipse fill="plum" stroke="black" cx="455" cy="-185.74" rx="22.9987" ry="22.9987"/>
<text text-anchor="middle" x="455" y="-182.04" font-family="Times,serif" font-size="14.00">14</text>
</g>
<!-- 0&#45;&gt;14 -->
<g id="edge18" class="edge"><title>0&#45;&gt;14</title>
<path fill="none" stroke="black" d="M383.58,-770.914C407.963,-764.438 452.077,-749.604 479,-721.984 509.145,-691.058 518,-676.17 518,-632.984 518,-632.984 518,-632.984 518,-486.984 518,-386.411 483.723,-270.85 465.736,-217.132"/>
<polygon fill="black" stroke="black" points="469.006,-215.878 462.474,-207.537 462.379,-218.131 469.006,-215.878"/>
</g>
<!-- 6 -->
<g id="node5" class="node"><title>6</title>
<ellipse fill="plum" stroke="black" cx="167" cy="-487.984" rx="18" ry="18"/>
<text text-anchor="middle" x="167" y="-484.284" font-family="Times,serif" font-size="14.00">6</text>
</g>
<!-- 1&#45;&gt;6 -->
<g id="edge6" class="edge"><title>1&#45;&gt;6</title>
<path fill="none" stroke="black" stroke-width="3" stroke-dasharray="5,2" d="M93.5938,-548.046C107.431,-536.913 129.092,-519.484 145.304,-506.44"/>
<polygon fill="black" stroke="black" stroke-width="3" points="147.617,-509.071 153.215,-500.076 143.229,-503.617 147.617,-509.071"/>
</g>
<!-- 2&#45;&gt;1 -->
<g id="edge19" class="edge"><title>2&#45;&gt;1</title>
<path fill="none" stroke="black" d="M154.25,-620.046C140.172,-608.848 118.086,-591.279 101.657,-578.211"/>
<polygon fill="black" stroke="black" points="103.658,-575.331 93.6534,-571.845 99.3006,-580.809 103.658,-575.331"/>
</g>
<!-- 2&#45;&gt;6 -->
<g id="edge21" class="edge"><title>2&#45;&gt;6</title>
<path fill="none" stroke="black" d="M167.879,-613.855C167.709,-589.654 167.396,-545.195 167.193,-516.377"/>
<polygon fill="black" stroke="black" points="170.691,-516.148 167.121,-506.173 163.692,-516.198 170.691,-516.148"/>
</g>
<!-- 4 -->
<g id="node6" class="node"><title>4</title>
<ellipse fill="plum" stroke="black" cx="18" cy="-415.984" rx="18" ry="18"/>
<text text-anchor="middle" x="18" y="-412.284" font-family="Times,serif" font-size="14.00">4</text>
</g>
<!-- 2&#45;&gt;4 -->
<g id="edge20" class="edge"><title>2&#45;&gt;4</title>
<path fill="none" stroke="black" d="M158.358,-616.749C146.399,-599.132 125.345,-568.243 107,-541.984 81.8621,-506.001 52.215,-464.556 34.2763,-439.586"/>
<polygon fill="black" stroke="black" points="36.9064,-437.249 28.227,-431.172 31.2229,-441.335 36.9064,-437.249"/>
</g>
<!-- 2&#45;&gt;14 -->
<g id="edge22" class="edge"><title>2&#45;&gt;14</title>
<path fill="none" stroke="black" d="M179.562,-617.704C206.23,-586.744 273.408,-506.863 321,-433.984 370.449,-358.261 418.496,-262.671 441.28,-215.611"/>
<polygon fill="black" stroke="black" points="444.435,-217.127 445.621,-206.599 438.128,-214.089 444.435,-217.127"/>
</g>
<!-- 3&#45;&gt;2 -->
<g id="edge23" class="edge"><title>3&#45;&gt;2</title>
<path fill="none" stroke="black" d="M256.243,-692.955C239.263,-681.415 211.164,-662.319 191.24,-648.778"/>
<polygon fill="black" stroke="black" points="192.968,-645.721 182.73,-642.995 189.033,-651.51 192.968,-645.721"/>
</g>
<!-- 3&#45;&gt;7 -->
<g id="edge24" class="edge"><title>3&#45;&gt;7</title>
<path fill="none" stroke="black" d="M260.541,-688.771C253.353,-678.446 244.051,-663.9 238,-649.984 221.664,-612.413 214,-601.952 214,-560.984 214,-560.984 214,-560.984 214,-486.984 214,-438.074 181.367,-388.507 160.039,-361.336"/>
<polygon fill="black" stroke="black" points="162.576,-358.907 153.568,-353.33 157.133,-363.308 162.576,-358.907"/>
</g>
<!-- 8 -->
<g id="node9" class="node"><title>8</title>
<ellipse fill="plum" stroke="black" cx="320" cy="-262.488" rx="18" ry="18"/>
<text text-anchor="middle" x="320" y="-258.788" font-family="Times,serif" font-size="14.00">8</text>
</g>
<!-- 3&#45;&gt;8 -->
<g id="edge25" class="edge"><title>3&#45;&gt;8</title>
<path fill="none" stroke="black" d="M271.462,-685.882C272.064,-667.934 273.367,-638.916 276,-613.984 284.503,-533.469 293.991,-514.325 304,-433.984 310.301,-383.404 315.339,-324.103 317.979,-290.447"/>
<polygon fill="black" stroke="black" points="321.469,-290.705 318.75,-280.465 314.49,-290.165 321.469,-290.705"/>
</g>
<!-- 13 -->
<g id="node13" class="node"><title>13</title>
<ellipse fill="plum" stroke="black" cx="455" cy="-104.244" rx="22.9987" ry="22.9987"/>
<text text-anchor="middle" x="455" y="-100.544" font-family="Times,serif" font-size="14.00">13</text>
</g>
<!-- 3&#45;&gt;13 -->
<g id="edge26" class="edge"><title>3&#45;&gt;13</title>
<path fill="none" stroke="black" d="M280.282,-688.401C316.43,-630.589 447.715,-410.811 487,-208.488 490.854,-188.638 492.061,-182.569 487,-162.992 484.195,-152.144 478.866,-141.16 473.35,-131.725"/>
<polygon fill="black" stroke="black" points="476.319,-129.871 468.08,-123.21 470.366,-133.555 476.319,-129.871"/>
</g>
<!-- 3&#45;&gt;14 -->
<g id="edge27" class="edge"><title>3&#45;&gt;14</title>
<path fill="none" stroke="black" d="M277.429,-687.021C299.71,-631.438 375.136,-441.03 428,-280.488 434.807,-259.816 441.583,-236.277 446.644,-217.957"/>
<polygon fill="black" stroke="black" points="450.077,-218.672 449.341,-208.102 443.326,-216.824 450.077,-218.672"/>
</g>
<!-- 6&#45;&gt;4 -->
<g id="edge4" class="edge"><title>6&#45;&gt;4</title>
<path fill="none" stroke="black" stroke-width="3" stroke-dasharray="5,2" d="M149.939,-481.705C142.273,-478.231 133.724,-473.663 126,-469.984 88.96,-452.343 78.04,-451.625 41,-433.984 40.574,-433.781 40.1456,-433.575 39.7153,-433.367"/>
<polygon fill="black" stroke="black" stroke-width="3" points="41.1734,-430.182 30.6737,-428.766 37.9985,-436.421 41.1734,-430.182"/>
</g>
<!-- 6&#45;&gt;5 -->
<g id="edge32" class="edge"><title>6&#45;&gt;5</title>
<path fill="none" stroke="black" d="M150.564,-480.522C134.239,-471.6 110.801,-454.289 97,-433.984 83.1693,-413.635 74.5077,-386.869 71.1032,-367.148"/>
<polygon fill="black" stroke="black" points="74.5417,-366.453 69.7532,-357.003 67.6028,-367.377 74.5417,-366.453"/>
</g>
<!-- 6&#45;&gt;7 -->
<g id="edge33" class="edge"><title>6&#45;&gt;7</title>
<path fill="none" stroke="black" d="M159.954,-471.279C152.92,-446.41 144.285,-397.664 141.22,-367.144"/>
<polygon fill="black" stroke="black" points="144.708,-366.848 140.381,-357.177 137.733,-367.436 144.708,-366.848"/>
</g>
<!-- 12 -->
<g id="node14" class="node"><title>12</title>
<ellipse fill="plum" stroke="black" cx="404" cy="-22.748" rx="22.9987" ry="22.9987"/>
<text text-anchor="middle" x="404" y="-19.048" font-family="Times,serif" font-size="14.00">12</text>
</g>
<!-- 6&#45;&gt;12 -->
<g id="edge34" class="edge"><title>6&#45;&gt;12</title>
<path fill="none" stroke="black" d="M171.199,-470.07C189.387,-397.262 261.633,-112.836 288,-81.496 309.736,-55.661 345.854,-40.2703 372.021,-31.9571"/>
<polygon fill="black" stroke="black" points="373.282,-35.2332 381.858,-29.0128 371.274,-28.5271 373.282,-35.2332"/>
</g>
<!-- 4&#45;&gt;6 -->
<g id="edge28" class="edge"><title>4&#45;&gt;6</title>
<path fill="none" stroke="black" d="M35.0609,-422.263C42.7273,-425.737 51.2757,-430.305 59,-433.984 96.04,-451.625 106.96,-452.343 144,-469.984 144.426,-470.187 144.854,-470.392 145.285,-470.6"/>
<polygon fill="black" stroke="black" points="143.827,-473.785 154.326,-475.202 147.002,-467.547 143.827,-473.785"/>
</g>
<!-- 4&#45;&gt;5 -->
<g id="edge5" class="edge"><title>4&#45;&gt;5</title>
<path fill="none" stroke="black" stroke-width="3" stroke-dasharray="5,2" d="M24.2558,-398.765C31.4571,-387.182 42.8538,-371.558 52.9465,-359.366"/>
<polygon fill="black" stroke="black" stroke-width="3" points="55.789,-361.429 59.6579,-351.566 50.4827,-356.863 55.789,-361.429"/>
</g>
<!-- 4&#45;&gt;7 -->
<g id="edge7" class="edge"><title>4&#45;&gt;7</title>
<path fill="none" stroke="black" stroke-width="3" stroke-dasharray="5,2" d="M31.8236,-403.631C52.5842,-389.736 91.4065,-366.316 117.111,-352.164"/>
<polygon fill="black" stroke="black" stroke-width="3" points="118.792,-355.234 125.93,-347.404 115.467,-349.074 118.792,-355.234"/>
</g>
<!-- 4&#45;&gt;8 -->
<g id="edge8" class="edge"><title>4&#45;&gt;8</title>
<path fill="none" stroke="black" stroke-width="3" stroke-dasharray="5,2" d="M35.2979,-410.386C63.9372,-402.452 122.644,-384.822 169,-361.984 194.883,-349.232 261.809,-303.757 297.232,-279.309"/>
<polygon fill="black" stroke="black" stroke-width="3" points="299.282,-282.147 305.515,-273.58 295.3,-276.39 299.282,-282.147"/>
</g>
<!-- 4&#45;&gt;10 -->
<g id="edge29" class="edge"><title>4&#45;&gt;10</title>
<path fill="none" stroke="black" d="M35.253,-410.025C67.8412,-400.657 140.682,-379.705 202,-361.984 216.323,-357.845 232.18,-353.248 245.61,-349.352"/>
<polygon fill="black" stroke="black" points="246.713,-352.676 255.342,-346.527 244.762,-345.953 246.713,-352.676"/>
</g>
<!-- 5&#45;&gt;6 -->
<g id="edge31" class="edge"><title>5&#45;&gt;6</title>
<path fill="none" stroke="black" d="M81.8476,-354.952C88.8378,-374.372 98.0261,-409.011 115,-433.984 123.798,-446.928 136.513,-458.656 147.314,-467.769"/>
<polygon fill="black" stroke="black" points="145.167,-470.535 155.105,-474.205 149.625,-465.138 145.167,-470.535"/>
</g>
<!-- 5&#45;&gt;4 -->
<g id="edge30" class="edge"><title>5&#45;&gt;4</title>
<path fill="none" stroke="black" d="M66.7675,-356.418C59.5732,-367.994 48.1755,-383.623 38.0779,-395.824"/>
<polygon fill="black" stroke="black" points="35.2302,-393.768 31.3627,-403.631 40.5372,-398.332 35.2302,-393.768"/>
</g>
<!-- 11 -->
<g id="node12" class="node"><title>11</title>
<ellipse fill="plum" stroke="black" cx="320" cy="-104.244" rx="22.9987" ry="22.9987"/>
<text text-anchor="middle" x="320" y="-100.544" font-family="Times,serif" font-size="14.00">11</text>
</g>
<!-- 5&#45;&gt;11 -->
<g id="edge11" class="edge"><title>5&#45;&gt;11</title>
<path fill="none" stroke="black" stroke-width="3" stroke-dasharray="5,2" d="M85.5883,-326.361C124.768,-289.404 244.985,-176.005 296.34,-127.562"/>
<polygon fill="black" stroke="black" stroke-width="3" points="298.812,-130.042 303.685,-120.634 294.009,-124.95 298.812,-130.042"/>
</g>
<!-- 7&#45;&gt;6 -->
<g id="edge36" class="edge"><title>7&#45;&gt;6</title>
<path fill="none" stroke="black" d="M149.038,-355.912C156.058,-380.72 164.677,-429.337 167.76,-459.881"/>
<polygon fill="black" stroke="black" points="164.274,-460.195 168.608,-469.863 171.249,-459.602 164.274,-460.195"/>
</g>
<!-- 7&#45;&gt;4 -->
<g id="edge35" class="edge"><title>7&#45;&gt;4</title>
<path fill="none" stroke="black" d="M128.533,-351.349C107.876,-365.205 68.7884,-388.794 42.9357,-403.03"/>
<polygon fill="black" stroke="black" points="41.2058,-399.987 34.0684,-407.817 44.5308,-406.147 41.2058,-399.987"/>
</g>
<!-- 9 -->
<g id="node10" class="node"><title>9</title>
<ellipse fill="plum" stroke="black" cx="320" cy="-185.74" rx="18" ry="18"/>
<text text-anchor="middle" x="320" y="-182.04" font-family="Times,serif" font-size="14.00">9</text>
</g>
<!-- 8&#45;&gt;9 -->
<g id="edge9" class="edge"><title>8&#45;&gt;9</title>
<path fill="none" stroke="black" stroke-width="3" stroke-dasharray="5,2" d="M314.322,-245.269C313.249,-235.865 312.982,-223.798 313.519,-213.066"/>
<polygon fill="black" stroke="black" stroke-width="3" points="317.022,-213.173 314.325,-202.927 310.044,-212.619 317.022,-213.173"/>
</g>
<!-- 8&#45;&gt;10 -->
<g id="edge10" class="edge"><title>8&#45;&gt;10</title>
<path fill="none" stroke="black" stroke-width="3" stroke-dasharray="5,2" d="M316.123,-280.193C311.54,-290.044 304.483,-302.69 297.522,-313.662"/>
<polygon fill="black" stroke="black" stroke-width="3" points="294.595,-311.742 292.009,-322.017 300.438,-315.598 294.595,-311.742"/>
</g>
<!-- 8&#45;&gt;11 -->
<g id="edge37" class="edge"><title>8&#45;&gt;11</title>
<path fill="none" stroke="black" d="M329.801,-246.919C336.088,-236.664 343.674,-222.345 347,-208.488 351.72,-188.826 351.387,-182.731 347,-162.992 344.737,-152.808 340.48,-142.295 336.004,-133.076"/>
<polygon fill="black" stroke="black" points="339.024,-131.294 331.335,-124.004 332.8,-134.497 339.024,-131.294"/>
</g>
<!-- 8&#45;&gt;13 -->
<g id="edge38" class="edge"><title>8&#45;&gt;13</title>
<path fill="none" stroke="black" d="M331.278,-248.435C353.711,-222.472 404.268,-163.959 433.334,-130.319"/>
<polygon fill="black" stroke="black" points="436.342,-132.192 440.231,-122.337 431.045,-127.615 436.342,-132.192"/>
</g>
<!-- 8&#45;&gt;14 -->
<g id="edge39" class="edge"><title>8&#45;&gt;14</title>
<path fill="none" stroke="black" d="M335.601,-253.138C359.13,-240.53 402.585,-217.183 418,-208.488 420.92,-206.841 423.957,-205.1 426.98,-203.351"/>
<polygon fill="black" stroke="black" points="429.001,-206.224 435.871,-198.158 425.471,-200.179 429.001,-206.224"/>
</g>
<!-- 9&#45;&gt;8 -->
<g id="edge40" class="edge"><title>9&#45;&gt;8</title>
<path fill="none" stroke="black" d="M325.675,-202.927C326.749,-212.325 327.018,-224.391 326.483,-235.126"/>
<polygon fill="black" stroke="black" points="322.98,-235.023 325.678,-245.269 329.958,-235.577 322.98,-235.023"/>
</g>
<!-- 9&#45;&gt;11 -->
<g id="edge41" class="edge"><title>9&#45;&gt;11</title>
<path fill="none" stroke="black" d="M320,-167.49C320,-158.586 320,-147.435 320,-137.04"/>
<polygon fill="black" stroke="black" points="323.5,-137.009 320,-127.009 316.5,-137.009 323.5,-137.009"/>
</g>
<!-- 10&#45;&gt;8 -->
<g id="edge42" class="edge"><title>10&#45;&gt;8</title>
<path fill="none" stroke="black" d="M283.052,-317.016C288.161,-306.734 295.251,-294.432 301.96,-284.216"/>
<polygon fill="black" stroke="black" points="304.912,-286.1 307.699,-275.878 299.146,-282.131 304.912,-286.1"/>
</g>
<!-- 10&#45;&gt;13 -->
<g id="edge13" class="edge"><title>10&#45;&gt;13</title>
<path fill="none" stroke="black" stroke-width="3" stroke-dasharray="5,2" d="M272.229,-316.744C265.588,-280.834 257.986,-208.134 293,-162.992 309.23,-142.068 380.741,-122.416 423.136,-112.318"/>
<polygon fill="black" stroke="black" stroke-width="3" points="424.039,-115.702 432.981,-110.02 422.448,-108.885 424.039,-115.702"/>
</g>
<!-- 10&#45;&gt;14 -->
<g id="edge43" class="edge"><title>10&#45;&gt;14</title>
<path fill="none" stroke="black" d="M294.36,-324.117C308.586,-312.498 329.201,-295.55 347,-280.488 375.906,-256.026 408.703,-227.436 430.494,-208.32"/>
<polygon fill="black" stroke="black" points="433.072,-210.714 438.276,-201.486 428.453,-205.455 433.072,-210.714"/>
</g>
<!-- 13&#45;&gt;12 -->
<g id="edge12" class="edge"><title>13&#45;&gt;12</title>
<path fill="none" stroke="black" stroke-width="3" stroke-dasharray="5,2" d="M443.171,-84.8062C436.717,-74.7448 428.603,-62.097 421.436,-50.926"/>
<polygon fill="black" stroke="black" stroke-width="3" points="424.287,-48.8881 415.941,-42.3612 418.395,-52.6679 424.287,-48.8881"/>
</g>
<!-- 13&#45;&gt;14 -->
<g id="edge44" class="edge"><title>13&#45;&gt;14</title>
<path fill="none" stroke="black" d="M461.04,-126.331C461.716,-134.571 461.909,-144.195 461.62,-153.226"/>
<polygon fill="black" stroke="black" points="458.113,-153.259 461.057,-163.436 465.102,-153.644 458.113,-153.259"/>
</g>
<!-- 12&#45;&gt;14 -->
<g id="edge14" class="edge"><title>12&#45;&gt;14</title>
<path fill="none" stroke="black" stroke-width="3" stroke-dasharray="5,2" d="M405.952,-45.6359C408.327,-66.909 413.288,-99.883 423,-126.992 426.74,-137.432 432.224,-148.229 437.599,-157.622"/>
<polygon fill="black" stroke="black" stroke-width="3" points="434.749,-159.677 442.869,-166.482 440.765,-156.098 434.749,-159.677"/>
</g>
<!-- 14&#45;&gt;13 -->
<g id="edge45" class="edge"><title>14&#45;&gt;13</title>
<path fill="none" stroke="black" d="M448.943,-163.436C448.275,-155.172 448.09,-145.541 448.388,-136.521"/>
<polygon fill="black" stroke="black" points="451.894,-136.511 448.96,-126.331 444.905,-136.119 451.894,-136.511"/>
</g>
</g>
</svg>
