<?xml version="1.0" encoding="UTF-8" standalone="no"?>
<!DOCTYPE svg PUBLIC "-//W3C//DTD SVG 1.1//EN"
 "http://www.w3.org/Graphics/SVG/1.1/DTD/svg11.dtd">
<!-- Generated by graphviz version 2.38.0 (20140413.2041)
 -->
<!-- Title: rgraph Pages: 1 -->
<svg width="630pt" height="932pt"
 viewBox="0.00 0.00 629.94 932.40" xmlns="http://www.w3.org/2000/svg" xmlns:xlink="http://www.w3.org/1999/xlink">
<g id="graph0" class="graph" transform="scale(1 1) rotate(0) translate(4 928.396)">
<title>rgraph</title>
<!-- 0 -->
<g id="node1" class="node"><title>0</title>
<ellipse fill="plum" stroke="black" cx="443.941" cy="-890.455" rx="33.8824" ry="33.8824"/>
<text text-anchor="middle" x="443.941" y="-894.255" font-family="Times,serif" font-size="14.00">0</text>
<text text-anchor="middle" x="443.941" y="-879.255" font-family="Times,serif" font-size="14.00">0|23</text>
</g>
<!-- 1 -->
<g id="node2" class="node"><title>1</title>
<ellipse fill="plum" stroke="black" cx="257.941" cy="-786.573" rx="33.8824" ry="33.8824"/>
<text text-anchor="middle" x="257.941" y="-790.373" font-family="Times,serif" font-size="14.00">1</text>
<text text-anchor="middle" x="257.941" y="-775.373" font-family="Times,serif" font-size="14.00">1|20</text>
</g>
<!-- 0&#45;&gt;1 -->
<g id="edge1" class="edge"><title>0&#45;&gt;1</title>
<path fill="none" stroke="black" stroke-width="3" stroke-dasharray="5,2" d="M414.469,-873.311C382.592,-855.851 331.64,-827.942 296.577,-808.736"/>
<polygon fill="black" stroke="black" stroke-width="3" points="298.035,-805.544 287.583,-803.809 294.672,-811.683 298.035,-805.544"/>
</g>
<!-- 2 -->
<g id="node3" class="node"><title>2</title>
<ellipse fill="plum" stroke="black" cx="325.941" cy="-676.327" rx="40.1111" ry="40.1111"/>
<text text-anchor="middle" x="325.941" y="-680.127" font-family="Times,serif" font-size="14.00">2</text>
<text text-anchor="middle" x="325.941" y="-665.127" font-family="Times,serif" font-size="14.00">21|22</text>
</g>
<!-- 0&#45;&gt;2 -->
<g id="edge2" class="edge"><title>0&#45;&gt;2</title>
<path fill="none" stroke="black" stroke-width="3" stroke-dasharray="5,2" d="M424.323,-862.589C402.408,-827.482 367.589,-765.482 345.657,-722.947"/>
<polygon fill="black" stroke="black" stroke-width="3" points="348.711,-721.233 341.047,-713.917 342.476,-724.415 348.711,-721.233"/>
</g>
<!-- 3 -->
<g id="node4" class="node"><title>3</title>
<ellipse fill="plum" stroke="black" cx="33.9411" cy="-676.327" rx="33.8824" ry="33.8824"/>
<text text-anchor="middle" x="33.9411" y="-680.127" font-family="Times,serif" font-size="14.00">3</text>
<text text-anchor="middle" x="33.9411" y="-665.127" font-family="Times,serif" font-size="14.00">2|19</text>
</g>
<!-- 0&#45;&gt;3 -->
<g id="edge12" class="edge"><title>0&#45;&gt;3</title>
<path fill="none" stroke="black" d="M423.54,-863.317C398.076,-832.438 351.658,-781.61 300.941,-752.632 228.852,-711.441 132.777,-691.577 77.7104,-682.996"/>
<polygon fill="black" stroke="black" points="78.0011,-679.501 67.5918,-681.475 76.9603,-686.423 78.0011,-679.501"/>
</g>
<!-- 8 -->
<g id="node7" class="node"><title>8</title>
<ellipse fill="plum" stroke="black" cx="287.941" cy="-455.834" rx="40.1111" ry="40.1111"/>
<text text-anchor="middle" x="287.941" y="-459.634" font-family="Times,serif" font-size="14.00">8</text>
<text text-anchor="middle" x="287.941" y="-444.634" font-family="Times,serif" font-size="14.00">14|17</text>
</g>
<!-- 0&#45;&gt;8 -->
<g id="edge13" class="edge"><title>0&#45;&gt;8</title>
<path fill="none" stroke="black" d="M437.109,-856.842C426.421,-807.991 403.932,-713.299 374.941,-636.021 357.045,-588.317 330.931,-536.171 311.986,-500.497"/>
<polygon fill="black" stroke="black" points="314.893,-498.51 307.09,-491.343 308.72,-501.811 314.893,-498.51"/>
</g>
<!-- 11 -->
<g id="node10" class="node"><title>11</title>
<ellipse fill="plum" stroke="black" cx="407.941" cy="-125.095" rx="33.8824" ry="33.8824"/>
<text text-anchor="middle" x="407.941" y="-128.895" font-family="Times,serif" font-size="14.00">11</text>
<text text-anchor="middle" x="407.941" y="-113.895" font-family="Times,serif" font-size="14.00">7|10</text>
</g>
<!-- 0&#45;&gt;11 -->
<g id="edge16" class="edge"><title>0&#45;&gt;11</title>
<path fill="none" stroke="black" d="M473.334,-872.64C523.891,-841.275 621.941,-768.67 621.941,-677.327 621.941,-677.327 621.941,-677.327 621.941,-338.224 621.941,-241.444 510.18,-173.76 448.19,-143.661"/>
<polygon fill="black" stroke="black" points="449.593,-140.453 439.059,-139.324 446.59,-146.776 449.593,-140.453"/>
</g>
<!-- 9 -->
<g id="node11" class="node"><title>9</title>
<ellipse fill="plum" stroke="black" cx="469.941" cy="-27.5772" rx="27.6545" ry="27.6545"/>
<text text-anchor="middle" x="469.941" y="-31.3772" font-family="Times,serif" font-size="14.00">9</text>
<text text-anchor="middle" x="469.941" y="-16.3772" font-family="Times,serif" font-size="14.00">8|9</text>
</g>
<!-- 0&#45;&gt;9 -->
<g id="edge14" class="edge"><title>0&#45;&gt;9</title>
<path fill="none" stroke="black" d="M460.275,-860.609C497.205,-792.589 583.941,-615.904 583.941,-456.834 583.941,-456.834 583.941,-456.834 583.941,-227.978 583.941,-163.385 570.022,-145.39 534.941,-91.1543 525.38,-76.3729 511.687,-62.5097 499.332,-51.6073"/>
<polygon fill="black" stroke="black" points="501.342,-48.7209 491.464,-44.8904 496.797,-54.0449 501.342,-48.7209"/>
</g>
<!-- 10 -->
<g id="node12" class="node"><title>10</title>
<ellipse fill="plum" stroke="black" cx="369.941" cy="-228.978" rx="33.8824" ry="33.8824"/>
<text text-anchor="middle" x="369.941" y="-232.778" font-family="Times,serif" font-size="14.00">10</text>
<text text-anchor="middle" x="369.941" y="-217.778" font-family="Times,serif" font-size="14.00">6|11</text>
</g>
<!-- 0&#45;&gt;10 -->
<g id="edge15" class="edge"><title>0&#45;&gt;10</title>
<path fill="none" stroke="black" d="M446.104,-856.336C450.713,-778.99 459.987,-580.52 445.941,-415.529 441.481,-363.135 447.671,-346.802 425.941,-298.919 419.788,-285.36 410.309,-272.221 400.889,-261.114"/>
<polygon fill="black" stroke="black" points="403.33,-258.59 394.088,-253.409 398.081,-263.223 403.33,-258.59"/>
</g>
<!-- 1&#45;&gt;3 -->
<g id="edge3" class="edge"><title>1&#45;&gt;3</title>
<path fill="none" stroke="black" stroke-width="3" stroke-dasharray="5,2" d="M225.408,-776.208C188.997,-764.974 128.95,-744.158 81.9411,-716.632 76.7609,-713.598 71.5611,-710.023 66.5959,-706.285"/>
<polygon fill="black" stroke="black" stroke-width="3" points="68.5262,-703.35 58.5059,-699.908 64.1928,-708.847 68.5262,-703.35"/>
</g>
<!-- 5 -->
<g id="node6" class="node"><title>5</title>
<ellipse fill="plum" stroke="black" cx="195.941" cy="-455.834" rx="33.8824" ry="33.8824"/>
<text text-anchor="middle" x="195.941" y="-459.634" font-family="Times,serif" font-size="14.00">5</text>
<text text-anchor="middle" x="195.941" y="-444.634" font-family="Times,serif" font-size="14.00">4|13</text>
</g>
<!-- 1&#45;&gt;5 -->
<g id="edge17" class="edge"><title>1&#45;&gt;5</title>
<path fill="none" stroke="black" d="M240.528,-757.337C219.891,-722.062 186.697,-659.128 173.941,-600.021 167.577,-570.53 169.668,-562.005 173.941,-532.139 175.566,-520.784 178.503,-508.75 181.712,-497.713"/>
<polygon fill="black" stroke="black" points="185.134,-498.491 184.707,-487.905 178.439,-496.447 185.134,-498.491"/>
</g>
<!-- 1&#45;&gt;8 -->
<g id="edge19" class="edge"><title>1&#45;&gt;8</title>
<path fill="none" stroke="black" d="M261.556,-752.75C265.579,-715.686 272.144,-653.561 276.941,-600.021 279.733,-568.864 282.43,-533.852 284.455,-506.249"/>
<polygon fill="black" stroke="black" points="287.962,-506.283 285.197,-496.056 280.98,-505.775 287.962,-506.283"/>
</g>
<!-- 7 -->
<g id="node9" class="node"><title>7</title>
<ellipse fill="plum" stroke="black" cx="287.941" cy="-339.224" rx="33.8824" ry="33.8824"/>
<text text-anchor="middle" x="287.941" y="-343.024" font-family="Times,serif" font-size="14.00">7</text>
<text text-anchor="middle" x="287.941" y="-328.024" font-family="Times,serif" font-size="14.00">5|12</text>
</g>
<!-- 1&#45;&gt;7 -->
<g id="edge18" class="edge"><title>1&#45;&gt;7</title>
<path fill="none" stroke="black" d="M236.838,-759.429C187.868,-695.398 76.3308,-527.774 152.941,-415.529 177.694,-379.263 207.665,-402.732 244.941,-379.529 249.02,-376.99 253.065,-374.04 256.949,-370.92"/>
<polygon fill="black" stroke="black" points="259.316,-373.501 264.655,-364.35 254.774,-368.175 259.316,-373.501"/>
</g>
<!-- 1&#45;&gt;9 -->
<g id="edge20" class="edge"><title>1&#45;&gt;9</title>
<path fill="none" stroke="black" d="M288.836,-772.2C314.032,-760.229 349.492,-740.847 374.941,-716.632 475.083,-621.343 545.941,-595.067 545.941,-456.834 545.941,-456.834 545.941,-456.834 545.941,-227.978 545.941,-165.041 512.474,-97.8255 489.957,-59.7246"/>
<polygon fill="black" stroke="black" points="492.939,-57.8926 484.775,-51.1397 486.946,-61.5097 492.939,-57.8926"/>
</g>
<!-- 1&#45;&gt;10 -->
<g id="edge21" class="edge"><title>1&#45;&gt;10</title>
<path fill="none" stroke="black" d="M289.512,-773.91C315.636,-762.804 352.049,-743.742 374.941,-716.632 420.832,-662.284 431.941,-638.212 431.941,-567.08 431.941,-567.08 431.941,-567.08 431.941,-454.834 431.941,-387.87 406.071,-313.593 387.752,-269.393"/>
<polygon fill="black" stroke="black" points="390.97,-268.015 383.855,-260.164 384.521,-270.738 390.97,-268.015"/>
</g>
<!-- 2&#45;&gt;0 -->
<g id="edge22" class="edge"><title>2&#45;&gt;0</title>
<path fill="none" stroke="black" d="M348.906,-709.6C371.951,-747.118 406.537,-809.054 427.158,-849.557"/>
<polygon fill="black" stroke="black" points="424.091,-851.248 431.711,-858.61 430.345,-848.103 424.091,-851.248"/>
</g>
<!-- 2&#45;&gt;5 -->
<g id="edge23" class="edge"><title>2&#45;&gt;5</title>
<path fill="none" stroke="black" d="M287.113,-665.453C255.03,-655.018 211.53,-635.082 190.941,-600.021 172.948,-569.381 176.592,-528.351 183.329,-498.066"/>
<polygon fill="black" stroke="black" points="186.757,-498.781 185.706,-488.239 179.953,-497.136 186.757,-498.781"/>
</g>
<!-- 2&#45;&gt;7 -->
<g id="edge24" class="edge"><title>2&#45;&gt;7</title>
<path fill="none" stroke="black" d="M340.982,-638.656C359.811,-587.051 386.245,-490.886 356.941,-415.529 349.729,-396.983 335.582,-380.226 321.964,-367.254"/>
<polygon fill="black" stroke="black" points="324.249,-364.6 314.501,-360.449 319.532,-369.773 324.249,-364.6"/>
</g>
<!-- 4 -->
<g id="node5" class="node"><title>4</title>
<ellipse fill="plum" stroke="black" cx="233.941" cy="-566.08" rx="33.8824" ry="33.8824"/>
<text text-anchor="middle" x="233.941" y="-569.88" font-family="Times,serif" font-size="14.00">4</text>
<text text-anchor="middle" x="233.941" y="-554.88" font-family="Times,serif" font-size="14.00">3|18</text>
</g>
<!-- 3&#45;&gt;4 -->
<g id="edge4" class="edge"><title>3&#45;&gt;4</title>
<path fill="none" stroke="black" stroke-width="3" stroke-dasharray="5,2" d="M63.4518,-659.354C98.4587,-640.408 156.914,-608.77 195.448,-587.914"/>
<polygon fill="black" stroke="black" stroke-width="3" points="197.181,-590.956 204.309,-583.118 193.849,-584.8 197.181,-590.956"/>
</g>
<!-- 4&#45;&gt;5 -->
<g id="edge5" class="edge"><title>4&#45;&gt;5</title>
<path fill="none" stroke="black" stroke-width="3" stroke-dasharray="5,2" d="M217.7,-536.072C213.077,-524.806 208.282,-511.674 204.265,-499.378"/>
<polygon fill="black" stroke="black" stroke-width="3" points="207.574,-498.232 201.229,-489.748 200.898,-500.337 207.574,-498.232"/>
</g>
<!-- 4&#45;&gt;8 -->
<g id="edge8" class="edge"><title>4&#45;&gt;8</title>
<path fill="none" stroke="black" stroke-width="3" stroke-dasharray="5,2" d="M248.697,-535.502C253.97,-524.931 260.033,-512.777 265.792,-501.232"/>
<polygon fill="black" stroke="black" stroke-width="3" points="268.993,-502.658 270.325,-492.147 262.729,-499.533 268.993,-502.658"/>
</g>
<!-- 4&#45;&gt;7 -->
<g id="edge25" class="edge"><title>4&#45;&gt;7</title>
<path fill="none" stroke="black" d="M265.955,-553.404C290.291,-542.631 322.041,-524.041 336.941,-496.139 353.817,-464.536 347.132,-449.876 336.941,-415.529 332.543,-400.706 324.205,-386.072 315.636,-373.703"/>
<polygon fill="black" stroke="black" points="318.414,-371.572 309.713,-365.527 312.746,-375.678 318.414,-371.572"/>
</g>
<!-- 5&#45;&gt;4 -->
<g id="edge26" class="edge"><title>5&#45;&gt;4</title>
<path fill="none" stroke="black" d="M212.173,-485.821C216.814,-497.127 221.627,-510.314 225.654,-522.65"/>
<polygon fill="black" stroke="black" points="222.354,-523.823 228.696,-532.309 229.03,-521.72 222.354,-523.823"/>
</g>
<!-- 5&#45;&gt;7 -->
<g id="edge7" class="edge"><title>5&#45;&gt;7</title>
<path fill="none" stroke="black" stroke-width="3" stroke-dasharray="5,2" d="M216.817,-428.827C229.756,-412.708 246.521,-391.823 260.524,-374.379"/>
<polygon fill="black" stroke="black" stroke-width="3" points="263.617,-376.117 267.148,-366.128 258.158,-371.735 263.617,-376.117"/>
</g>
<!-- 5&#45;&gt;9 -->
<g id="edge27" class="edge"><title>5&#45;&gt;9</title>
<path fill="none" stroke="black" d="M219.228,-430.708C225.297,-425.247 232.072,-419.805 238.941,-415.529 276.218,-392.326 306.189,-415.795 330.941,-379.529 360.175,-336.697 329.809,-314.697 326.941,-262.919 325.273,-232.795 321.678,-224.744 326.941,-195.037 335.517,-146.628 333.572,-129.007 364.941,-91.1543 383.424,-68.851 412.049,-52.5411 434.745,-42.1741"/>
<polygon fill="black" stroke="black" points="436.306,-45.3117 444.063,-38.0948 433.498,-38.8993 436.306,-45.3117"/>
</g>
<!-- 5&#45;&gt;10 -->
<g id="edge28" class="edge"><title>5&#45;&gt;10</title>
<path fill="none" stroke="black" d="M218.957,-430.251C225.035,-424.803 231.881,-419.482 238.941,-415.529 289.384,-387.282 328.256,-425.015 363.941,-379.529 387.459,-349.552 386.005,-304.851 380.469,-272.129"/>
<polygon fill="black" stroke="black" points="383.844,-271.139 378.555,-261.959 376.965,-272.434 383.844,-271.139"/>
</g>
<!-- 6 -->
<g id="node8" class="node"><title>6</title>
<ellipse fill="plum" stroke="black" cx="195.941" cy="-339.224" rx="40.1111" ry="40.1111"/>
<text text-anchor="middle" x="195.941" y="-343.024" font-family="Times,serif" font-size="14.00">6</text>
<text text-anchor="middle" x="195.941" y="-328.024" font-family="Times,serif" font-size="14.00">15|16</text>
</g>
<!-- 8&#45;&gt;6 -->
<g id="edge6" class="edge"><title>8&#45;&gt;6</title>
<path fill="none" stroke="black" stroke-width="3" stroke-dasharray="5,2" d="M259.538,-426.797C247.909,-413.378 234.576,-397.031 223.083,-382.171"/>
<polygon fill="black" stroke="black" stroke-width="3" points="225.765,-379.916 216.911,-374.097 220.204,-384.167 225.765,-379.916"/>
</g>
<!-- 8&#45;&gt;7 -->
<g id="edge34" class="edge"><title>8&#45;&gt;7</title>
<path fill="none" stroke="black" d="M287.941,-415.392C287.941,-405.096 287.941,-393.946 287.941,-383.465"/>
<polygon fill="black" stroke="black" points="291.441,-383.263 287.941,-373.263 284.441,-383.263 291.441,-383.263"/>
</g>
<!-- 8&#45;&gt;9 -->
<g id="edge35" class="edge"><title>8&#45;&gt;9</title>
<path fill="none" stroke="black" d="M321.768,-433.659C342.32,-419.8 368.293,-400.432 387.941,-379.529 430.478,-334.276 444.242,-321.474 464.941,-262.919 488.52,-196.217 482.379,-112.035 476.011,-64.8771"/>
<polygon fill="black" stroke="black" points="479.455,-64.2399 474.575,-54.8363 472.526,-65.2311 479.455,-64.2399"/>
</g>
<!-- 6&#45;&gt;8 -->
<g id="edge29" class="edge"><title>6&#45;&gt;8</title>
<path fill="none" stroke="black" d="M224.415,-368.343C236.057,-381.78 249.395,-398.137 260.883,-412.995"/>
<polygon fill="black" stroke="black" points="258.199,-415.247 267.052,-421.067 263.76,-410.997 258.199,-415.247"/>
</g>
<!-- 6&#45;&gt;11 -->
<g id="edge32" class="edge"><title>6&#45;&gt;11</title>
<path fill="none" stroke="black" d="M225.034,-311.316C231.258,-306.618 238.046,-302.195 244.941,-298.919 313.913,-266.147 364.934,-322.303 412.941,-262.919 434.355,-236.43 430.229,-196.724 422.446,-166.898"/>
<polygon fill="black" stroke="black" points="425.79,-165.863 419.697,-157.195 419.055,-167.77 425.79,-165.863"/>
</g>
<!-- 6&#45;&gt;9 -->
<g id="edge30" class="edge"><title>6&#45;&gt;9</title>
<path fill="none" stroke="black" d="M201.305,-298.818C210.675,-244.807 234.991,-148.02 293.941,-91.1543 332.079,-54.3658 393.233,-39.046 432.485,-32.7766"/>
<polygon fill="black" stroke="black" points="433.071,-36.2282 442.452,-31.3038 432.047,-29.3034 433.071,-36.2282"/>
</g>
<!-- 6&#45;&gt;10 -->
<g id="edge31" class="edge"><title>6&#45;&gt;10</title>
<path fill="none" stroke="black" d="M226.436,-312.441C232.433,-307.752 238.779,-303.045 244.941,-298.919 272.514,-280.456 305.439,-262.447 330.574,-249.468"/>
<polygon fill="black" stroke="black" points="332.49,-252.419 339.799,-244.749 329.302,-246.187 332.49,-252.419"/>
</g>
<!-- 7&#45;&gt;11 -->
<g id="edge33" class="edge"><title>7&#45;&gt;11</title>
<path fill="none" stroke="black" d="M321.456,-332.95C359.164,-325.03 418.694,-306.089 445.941,-262.919 465.498,-231.934 449.538,-190.809 432.71,-161.762"/>
<polygon fill="black" stroke="black" points="435.673,-159.899 427.498,-153.16 429.687,-163.526 435.673,-159.899"/>
</g>
<!-- 7&#45;&gt;10 -->
<g id="edge10" class="edge"><title>7&#45;&gt;10</title>
<path fill="none" stroke="black" stroke-width="3" stroke-dasharray="5,2" d="M308.001,-311.744C318.722,-297.591 332.055,-279.99 343.602,-264.748"/>
<polygon fill="black" stroke="black" stroke-width="3" points="346.556,-266.644 349.805,-256.559 340.976,-262.417 346.556,-266.644"/>
</g>
<!-- 11&#45;&gt;9 -->
<g id="edge9" class="edge"><title>11&#45;&gt;9</title>
<path fill="none" stroke="black" stroke-width="3" stroke-dasharray="5,2" d="M426.041,-96.2108C433.446,-84.802 442.047,-71.5514 449.663,-59.818"/>
<polygon fill="black" stroke="black" stroke-width="3" points="452.75,-61.4902 455.259,-51.1966 446.879,-57.679 452.75,-61.4902"/>
</g>
<!-- 11&#45;&gt;10 -->
<g id="edge37" class="edge"><title>11&#45;&gt;10</title>
<path fill="none" stroke="black" d="M402.079,-158.841C398.847,-168.716 394.84,-179.641 390.724,-189.835"/>
<polygon fill="black" stroke="black" points="387.385,-188.75 386.767,-199.327 393.846,-191.444 387.385,-188.75"/>
</g>
<!-- 9&#45;&gt;10 -->
<g id="edge36" class="edge"><title>9&#45;&gt;10</title>
<path fill="none" stroke="black" d="M471.395,-55.3036C471.727,-82.9649 468.885,-126.589 450.941,-159.037 440.668,-177.614 423.287,-193.41 407.253,-205.175"/>
<polygon fill="black" stroke="black" points="405.203,-202.338 399.037,-210.953 409.23,-208.064 405.203,-202.338"/>
</g>
<!-- 10&#45;&gt;11 -->
<g id="edge11" class="edge"><title>10&#45;&gt;11</title>
<path fill="none" stroke="black" stroke-width="3" stroke-dasharray="5,2" d="M375.728,-195.461C378.957,-185.576 382.97,-174.621 387.096,-164.391"/>
<polygon fill="black" stroke="black" stroke-width="3" points="390.45,-165.442 391.064,-154.865 383.988,-162.75 390.45,-165.442"/>
</g>
</g>
</svg>
