<?xml version="1.0" encoding="UTF-8" standalone="no"?>
<!DOCTYPE svg PUBLIC "-//W3C//DTD SVG 1.1//EN"
 "http://www.w3.org/Graphics/SVG/1.1/DTD/svg11.dtd">
<!-- Generated by graphviz version 2.38.0 (20140413.2041)
 -->
<!-- Title: htree Pages: 1 -->
<svg width="386pt" height="507pt"
 viewBox="0.00 0.00 386.00 507.49" xmlns="http://www.w3.org/2000/svg" xmlns:xlink="http://www.w3.org/1999/xlink">
<g id="graph0" class="graph" transform="scale(1 1) rotate(0) translate(4 503.488)">
<title>htree</title>
<polygon fill="black" stroke="none" points="-4,4 -4,-503.488 382,-503.488 382,4 -4,4"/>
<!-- 0xf0f4c0 -->
<g id="node1" class="node"><title>0xf0f4c0</title>
<polygon fill="#7ccd7c" stroke="white" points="54,-301.748 0,-301.748 0,-265.748 54,-265.748 54,-301.748"/>
<text text-anchor="middle" x="27" y="-280.048" font-family="Times,serif" font-size="14.00">s | 8</text>
</g>
<!-- 0xf0f3d0 -->
<g id="node2" class="node"><title>0xf0f3d0</title>
<polygon fill="#7ccd7c" stroke="white" points="54,-210 0,-210 0,-174 54,-174 54,-210"/>
<text text-anchor="middle" x="27" y="-188.3" font-family="Times,serif" font-size="14.00">d | 4</text>
</g>
<!-- 0xf0f3a8 -->
<g id="node3" class="node"><title>0xf0f3a8</title>
<polygon fill="#7ccd7c" stroke="white" points="76,-123 22,-123 22,-87 76,-87 76,-123"/>
<text text-anchor="middle" x="49" y="-101.3" font-family="Times,serif" font-size="14.00">b | 2</text>
</g>
<!-- 0xf0f498 -->
<g id="node4" class="node"><title>0xf0f498</title>
<polygon fill="#7ccd7c" stroke="white" points="148,-123 94,-123 94,-87 148,-87 148,-123"/>
<text text-anchor="middle" x="121" y="-101.3" font-family="Times,serif" font-size="14.00">o | 3</text>
</g>
<!-- 0xf0f538 -->
<g id="node5" class="node"><title>0xf0f538</title>
<ellipse fill="plum" stroke="white" cx="90" cy="-192" rx="18" ry="18"/>
<text text-anchor="middle" x="90" y="-188.3" font-family="Times,serif" font-size="14.00">5</text>
</g>
<!-- 0xf0f538&#45;&gt;0xf0f3a8 -->
<g id="edge1" class="edge"><title>0xf0f538&#45;&gt;0xf0f3a8</title>
<path fill="none" stroke="white" d="M82.48,-175.41C76.6947,-163.416 68.5666,-146.565 61.7678,-132.47"/>
<polygon fill="white" stroke="white" points="64.8156,-130.732 57.3186,-123.246 58.5107,-133.773 64.8156,-130.732"/>
<text text-anchor="middle" x="77" y="-144.8" font-family="Times,serif" font-size="14.00" fill="white">0</text>
</g>
<!-- 0xf0f538&#45;&gt;0xf0f498 -->
<g id="edge2" class="edge"><title>0xf0f538&#45;&gt;0xf0f498</title>
<path fill="none" stroke="white" d="M95.9771,-174.611C100.309,-162.732 106.262,-146.41 111.275,-132.666"/>
<polygon fill="white" stroke="white" points="114.584,-133.808 114.722,-123.214 108.008,-131.409 114.584,-133.808"/>
<text text-anchor="middle" x="113" y="-144.8" font-family="Times,serif" font-size="14.00" fill="white">1</text>
</g>
<!-- 0xf0f588 -->
<g id="node6" class="node"><title>0xf0f588</title>
<ellipse fill="plum" stroke="white" cx="90" cy="-283.748" rx="18" ry="18"/>
<text text-anchor="middle" x="90" y="-280.048" font-family="Times,serif" font-size="14.00">9</text>
</g>
<!-- 0xf0f588&#45;&gt;0xf0f3d0 -->
<g id="edge3" class="edge"><title>0xf0f588&#45;&gt;0xf0f3d0</title>
<path fill="none" stroke="white" d="M79.878,-268.328C70.4867,-254.95 56.2954,-234.733 44.9782,-218.611"/>
<polygon fill="white" stroke="white" points="47.6454,-216.319 39.0353,-210.145 41.9161,-220.341 47.6454,-216.319"/>
<text text-anchor="middle" x="66" y="-231.8" font-family="Times,serif" font-size="14.00" fill="white">0</text>
</g>
<!-- 0xf0f588&#45;&gt;0xf0f538 -->
<g id="edge4" class="edge"><title>0xf0f588&#45;&gt;0xf0f538</title>
<path fill="none" stroke="white" d="M90,-265.444C90,-252.655 90,-234.99 90,-220.305"/>
<polygon fill="white" stroke="white" points="93.5001,-220.251 90,-210.251 86.5001,-220.251 93.5001,-220.251"/>
<text text-anchor="middle" x="95" y="-231.8" font-family="Times,serif" font-size="14.00" fill="white">1</text>
</g>
<!-- 0xf0f600 -->
<g id="node7" class="node"><title>0xf0f600</title>
<ellipse fill="plum" stroke="white" cx="90" cy="-380.244" rx="22.9987" ry="22.9987"/>
<text text-anchor="middle" x="90" y="-376.544" font-family="Times,serif" font-size="14.00">17</text>
</g>
<!-- 0xf0f600&#45;&gt;0xf0f4c0 -->
<g id="edge5" class="edge"><title>0xf0f600&#45;&gt;0xf0f4c0</title>
<path fill="none" stroke="white" d="M77.5532,-360.575C67.9316,-346.143 54.5112,-326.013 43.9157,-310.12"/>
<polygon fill="white" stroke="white" points="46.8214,-308.169 38.3621,-301.79 40.9972,-312.052 46.8214,-308.169"/>
<text text-anchor="middle" x="68" y="-328.296" font-family="Times,serif" font-size="14.00" fill="white">0</text>
</g>
<!-- 0xf0f600&#45;&gt;0xf0f588 -->
<g id="edge6" class="edge"><title>0xf0f600&#45;&gt;0xf0f588</title>
<path fill="none" stroke="white" d="M90,-357.327C90,-343.859 90,-326.491 90,-312.122"/>
<polygon fill="white" stroke="white" points="93.5001,-311.833 90,-301.833 86.5001,-311.833 93.5001,-311.833"/>
<text text-anchor="middle" x="95" y="-328.296" font-family="Times,serif" font-size="14.00" fill="white">1</text>
</g>
<!-- 0xf0f470 -->
<g id="node8" class="node"><title>0xf0f470</title>
<polygon fill="#7ccd7c" stroke="white" points="180,-210 126,-210 126,-174 180,-174 180,-210"/>
<text text-anchor="middle" x="153" y="-188.3" font-family="Times,serif" font-size="14.00">l | 5</text>
</g>
<!-- 0xf0f420 -->
<g id="node9" class="node"><title>0xf0f420</title>
<polygon fill="#7ccd7c" stroke="white" points="183,-36 129,-36 129,-0 183,-0 183,-36"/>
<text text-anchor="middle" x="156" y="-14.3" font-family="Times,serif" font-size="14.00">f | 1</text>
</g>
<!-- 0xf0f3f8 -->
<g id="node10" class="node"><title>0xf0f3f8</title>
<polygon fill="#7ccd7c" stroke="white" points="255,-36 201,-36 201,-0 255,-0 255,-36"/>
<text text-anchor="middle" x="228" y="-14.3" font-family="Times,serif" font-size="14.00">e | 2</text>
</g>
<!-- 0xf0f510 -->
<g id="node11" class="node"><title>0xf0f510</title>
<ellipse fill="plum" stroke="white" cx="192" cy="-105" rx="18" ry="18"/>
<text text-anchor="middle" x="192" y="-101.3" font-family="Times,serif" font-size="14.00">3</text>
</g>
<!-- 0xf0f510&#45;&gt;0xf0f420 -->
<g id="edge7" class="edge"><title>0xf0f510&#45;&gt;0xf0f420</title>
<path fill="none" stroke="white" d="M185.229,-88.0122C180.181,-76.0932 173.171,-59.5423 167.281,-45.6367"/>
<polygon fill="white" stroke="white" points="170.358,-43.926 163.235,-36.0828 163.912,-46.656 170.358,-43.926"/>
<text text-anchor="middle" x="182" y="-57.8" font-family="Times,serif" font-size="14.00" fill="white">0</text>
</g>
<!-- 0xf0f510&#45;&gt;0xf0f3f8 -->
<g id="edge8" class="edge"><title>0xf0f510&#45;&gt;0xf0f3f8</title>
<path fill="none" stroke="white" d="M198.771,-88.0122C203.819,-76.0932 210.829,-59.5423 216.719,-45.6367"/>
<polygon fill="white" stroke="white" points="220.088,-46.656 220.765,-36.0828 213.642,-43.926 220.088,-46.656"/>
<text text-anchor="middle" x="218" y="-57.8" font-family="Times,serif" font-size="14.00" fill="white">1</text>
</g>
<!-- 0xf0f448 -->
<g id="node12" class="node"><title>0xf0f448</title>
<polygon fill="#7ccd7c" stroke="white" points="282,-123 228,-123 228,-87 282,-87 282,-123"/>
<text text-anchor="middle" x="255" y="-101.3" font-family="Times,serif" font-size="14.00">k | 3</text>
</g>
<!-- 0xf0f560 -->
<g id="node13" class="node"><title>0xf0f560</title>
<ellipse fill="plum" stroke="white" cx="216" cy="-192" rx="18" ry="18"/>
<text text-anchor="middle" x="216" y="-188.3" font-family="Times,serif" font-size="14.00">6</text>
</g>
<!-- 0xf0f560&#45;&gt;0xf0f510 -->
<g id="edge9" class="edge"><title>0xf0f560&#45;&gt;0xf0f510</title>
<path fill="none" stroke="white" d="M211.258,-174.207C207.884,-162.255 203.282,-145.958 199.424,-132.292"/>
<polygon fill="white" stroke="white" points="202.736,-131.142 196.65,-122.469 195.999,-133.044 202.736,-131.142"/>
<text text-anchor="middle" x="211" y="-144.8" font-family="Times,serif" font-size="14.00" fill="white">0</text>
</g>
<!-- 0xf0f560&#45;&gt;0xf0f448 -->
<g id="edge10" class="edge"><title>0xf0f560&#45;&gt;0xf0f448</title>
<path fill="none" stroke="white" d="M223.153,-175.41C228.656,-163.416 236.388,-146.565 242.855,-132.47"/>
<polygon fill="white" stroke="white" points="246.098,-133.794 247.087,-123.246 239.736,-130.875 246.098,-133.794"/>
<text text-anchor="middle" x="243" y="-144.8" font-family="Times,serif" font-size="14.00" fill="white">1</text>
</g>
<!-- 0xf0f5b0 -->
<g id="node14" class="node"><title>0xf0f5b0</title>
<ellipse fill="plum" stroke="white" cx="176" cy="-283.748" rx="22.9987" ry="22.9987"/>
<text text-anchor="middle" x="176" y="-280.048" font-family="Times,serif" font-size="14.00">11</text>
</g>
<!-- 0xf0f5b0&#45;&gt;0xf0f470 -->
<g id="edge11" class="edge"><title>0xf0f5b0&#45;&gt;0xf0f470</title>
<path fill="none" stroke="white" d="M170.549,-261.479C167.384,-249.127 163.363,-233.439 159.97,-220.196"/>
<polygon fill="white" stroke="white" points="163.283,-219.028 157.41,-210.21 156.503,-220.766 163.283,-219.028"/>
<text text-anchor="middle" x="171" y="-231.8" font-family="Times,serif" font-size="14.00" fill="white">0</text>
</g>
<!-- 0xf0f5b0&#45;&gt;0xf0f560 -->
<g id="edge12" class="edge"><title>0xf0f5b0&#45;&gt;0xf0f560</title>
<path fill="none" stroke="white" d="M185.077,-262.383C190.901,-249.315 198.508,-232.248 204.719,-218.311"/>
<polygon fill="white" stroke="white" points="208.076,-219.376 208.95,-208.818 201.682,-216.527 208.076,-219.376"/>
<text text-anchor="middle" x="205" y="-231.8" font-family="Times,serif" font-size="14.00" fill="white">1</text>
</g>
<!-- 0xf0f4e8 -->
<g id="node15" class="node"><title>0xf0f4e8</title>
<polygon fill="#7ccd7c" stroke="white" points="306,-210 252,-210 252,-174 306,-174 306,-210"/>
<text text-anchor="middle" x="279" y="-188.3" font-family="Times,serif" font-size="14.00">w | 6</text>
</g>
<!-- 0xf0f380 -->
<g id="node16" class="node"><title>0xf0f380</title>
<polygon fill="#7ccd7c" stroke="white" points="378,-210 324,-210 324,-174 378,-174 378,-210"/>
<text text-anchor="middle" x="351" y="-188.3" font-family="Times,serif" font-size="14.00">a | 8</text>
</g>
<!-- 0xf0f5d8 -->
<g id="node17" class="node"><title>0xf0f5d8</title>
<ellipse fill="plum" stroke="white" cx="279" cy="-283.748" rx="22.9987" ry="22.9987"/>
<text text-anchor="middle" x="279" y="-280.048" font-family="Times,serif" font-size="14.00">14</text>
</g>
<!-- 0xf0f5d8&#45;&gt;0xf0f4e8 -->
<g id="edge13" class="edge"><title>0xf0f5d8&#45;&gt;0xf0f4e8</title>
<path fill="none" stroke="white" d="M279,-260.563C279,-248.397 279,-233.212 279,-220.321"/>
<polygon fill="white" stroke="white" points="282.5,-220.148 279,-210.148 275.5,-220.148 282.5,-220.148"/>
<text text-anchor="middle" x="284" y="-231.8" font-family="Times,serif" font-size="14.00" fill="white">0</text>
</g>
<!-- 0xf0f5d8&#45;&gt;0xf0f380 -->
<g id="edge14" class="edge"><title>0xf0f5d8&#45;&gt;0xf0f380</title>
<path fill="none" stroke="white" d="M292.882,-265.444C303.64,-252.035 318.699,-233.263 330.793,-218.188"/>
<polygon fill="white" stroke="white" points="333.633,-220.242 337.16,-210.251 328.173,-215.861 333.633,-220.242"/>
<text text-anchor="middle" x="326" y="-231.8" font-family="Times,serif" font-size="14.00" fill="white">1</text>
</g>
<!-- 0xf0f628 -->
<g id="node18" class="node"><title>0xf0f628</title>
<ellipse fill="plum" stroke="white" cx="176" cy="-380.244" rx="22.9987" ry="22.9987"/>
<text text-anchor="middle" x="176" y="-376.544" font-family="Times,serif" font-size="14.00">25</text>
</g>
<!-- 0xf0f628&#45;&gt;0xf0f5b0 -->
<g id="edge15" class="edge"><title>0xf0f628&#45;&gt;0xf0f5b0</title>
<path fill="none" stroke="white" d="M176,-357.327C176,-345.281 176,-330.117 176,-316.768"/>
<polygon fill="white" stroke="white" points="179.5,-316.546 176,-306.546 172.5,-316.546 179.5,-316.546"/>
<text text-anchor="middle" x="181" y="-328.296" font-family="Times,serif" font-size="14.00" fill="white">0</text>
</g>
<!-- 0xf0f628&#45;&gt;0xf0f5d8 -->
<g id="edge16" class="edge"><title>0xf0f628&#45;&gt;0xf0f5d8</title>
<path fill="none" stroke="white" d="M192.549,-364.062C209.442,-348.563 235.836,-324.348 255.018,-306.75"/>
<polygon fill="white" stroke="white" points="257.49,-309.232 262.492,-299.893 252.757,-304.074 257.49,-309.232"/>
<text text-anchor="middle" x="239" y="-328.296" font-family="Times,serif" font-size="14.00" fill="white">1</text>
</g>
<!-- 0xf0f650 -->
<g id="node19" class="node"><title>0xf0f650</title>
<ellipse fill="plum" stroke="white" cx="139" cy="-476.74" rx="22.9987" ry="22.9987"/>
<text text-anchor="middle" x="139" y="-473.04" font-family="Times,serif" font-size="14.00">42</text>
</g>
<!-- 0xf0f650&#45;&gt;0xf0f600 -->
<g id="edge17" class="edge"><title>0xf0f650&#45;&gt;0xf0f600</title>
<path fill="none" stroke="white" d="M128.847,-456.16C121.883,-442.73 112.531,-424.694 104.748,-409.685"/>
<polygon fill="white" stroke="white" points="107.85,-408.065 100.14,-400.798 101.636,-411.287 107.85,-408.065"/>
<text text-anchor="middle" x="123" y="-424.792" font-family="Times,serif" font-size="14.00" fill="white">0</text>
</g>
<!-- 0xf0f650&#45;&gt;0xf0f628 -->
<g id="edge18" class="edge"><title>0xf0f650&#45;&gt;0xf0f628</title>
<path fill="none" stroke="white" d="M147.028,-455.236C152.071,-442.357 158.661,-425.527 164.282,-411.172"/>
<polygon fill="white" stroke="white" points="167.6,-412.296 167.987,-401.708 161.082,-409.744 167.6,-412.296"/>
<text text-anchor="middle" x="166" y="-424.792" font-family="Times,serif" font-size="14.00" fill="white">1</text>
</g>
</g>
</svg>
