<?xml version="1.0" encoding="UTF-8" standalone="no"?>
<!DOCTYPE svg PUBLIC "-//W3C//DTD SVG 1.1//EN"
 "http://www.w3.org/Graphics/SVG/1.1/DTD/svg11.dtd">
<!-- Generated by graphviz version 2.38.0 (20140413.2041)
 -->
<!-- Title: bstree Pages: 1 -->
<svg width="245pt" height="260pt"
 viewBox="0.00 0.00 245.00 260.00" xmlns="http://www.w3.org/2000/svg" xmlns:xlink="http://www.w3.org/1999/xlink">
<g id="graph0" class="graph" transform="scale(1 1) rotate(0) translate(4 256)">
<title>bstree</title>
<polygon fill="black" stroke="none" points="-4,4 -4,-256 241,-256 241,4 -4,4"/>
<!-- 0xe67130 -->
<g id="node1" class="node"><title>0xe67130</title>
<ellipse fill="#104e8b" stroke="white" cx="18" cy="-18" rx="18" ry="18"/>
<text text-anchor="middle" x="18" y="-14.3" font-family="Times,serif" font-size="14.00">0</text>
</g>
<!-- 0xe67070 -->
<g id="node2" class="node"><title>0xe67070</title>
<ellipse fill="#104e8b" stroke="white" cx="57" cy="-90" rx="18" ry="18"/>
<text text-anchor="middle" x="57" y="-86.3" font-family="Times,serif" font-size="14.00">1</text>
</g>
<!-- 0xe67070&#45;&gt;0xe67130 -->
<g id="edge1" class="edge"><title>0xe67070&#45;&gt;0xe67130</title>
<path fill="none" stroke="white" stroke-dasharray="5,2" d="M48.5376,-73.811C43.5292,-64.8216 37.0723,-53.2323 31.3868,-43.0275"/>
<polygon fill="white" stroke="white" points="34.3705,-41.1915 26.4459,-34.1593 28.2555,-44.5985 34.3705,-41.1915"/>
</g>
<!-- r0xe67070 -->
<!-- 0xe67070&#45;&gt;r0xe67070 -->
<!-- 0xe67090 -->
<g id="node4" class="node"><title>0xe67090</title>
<ellipse fill="#104e8b" stroke="white" cx="124" cy="-18" rx="18" ry="18"/>
<text text-anchor="middle" x="124" y="-14.3" font-family="Times,serif" font-size="14.00">4</text>
</g>
<!-- 0xe67050 -->
<g id="node5" class="node"><title>0xe67050</title>
<ellipse fill="#104e8b" stroke="white" cx="111" cy="-90" rx="18" ry="18"/>
<text text-anchor="middle" x="111" y="-86.3" font-family="Times,serif" font-size="14.00">3</text>
</g>
<!-- 0xe67050&#45;&gt;0xe67090 -->
<g id="edge4" class="edge"><title>0xe67050&#45;&gt;0xe67090</title>
<path fill="none" stroke="white" d="M114.147,-72.055C115.616,-64.1446 117.4,-54.5398 119.044,-45.6879"/>
<polygon fill="white" stroke="white" points="122.497,-46.26 120.882,-35.789 115.615,-44.9818 122.497,-46.26"/>
</g>
<!-- l0xe67050 -->
<!-- 0xe67050&#45;&gt;l0xe67050 -->
<!-- 0xe67030 -->
<g id="node7" class="node"><title>0xe67030</title>
<ellipse fill="#104e8b" stroke="white" cx="111" cy="-162" rx="18" ry="18"/>
<text text-anchor="middle" x="111" y="-158.3" font-family="Times,serif" font-size="14.00">2</text>
</g>
<!-- 0xe67030&#45;&gt;0xe67070 -->
<g id="edge5" class="edge"><title>0xe67030&#45;&gt;0xe67070</title>
<path fill="none" stroke="white" stroke-dasharray="5,2" d="M100.331,-147.17C92.7874,-137.391 82.5188,-124.08 73.8713,-112.87"/>
<polygon fill="white" stroke="white" points="76.5258,-110.581 67.6465,-104.801 70.9833,-114.857 76.5258,-110.581"/>
</g>
<!-- 0xe67030&#45;&gt;0xe67050 -->
<g id="edge6" class="edge"><title>0xe67030&#45;&gt;0xe67050</title>
<path fill="none" stroke="white" d="M111,-143.697C111,-135.983 111,-126.712 111,-118.112"/>
<polygon fill="white" stroke="white" points="114.5,-118.104 111,-108.104 107.5,-118.104 114.5,-118.104"/>
</g>
<!-- 0xe67110 -->
<g id="node8" class="node"><title>0xe67110</title>
<ellipse fill="#104e8b" stroke="white" cx="204" cy="-18" rx="18" ry="18"/>
<text text-anchor="middle" x="204" y="-14.3" font-family="Times,serif" font-size="14.00">7</text>
</g>
<!-- 0xe670f0 -->
<g id="node9" class="node"><title>0xe670f0</title>
<ellipse fill="#104e8b" stroke="white" cx="165" cy="-90" rx="18" ry="18"/>
<text text-anchor="middle" x="165" y="-86.3" font-family="Times,serif" font-size="14.00">6</text>
</g>
<!-- 0xe670f0&#45;&gt;0xe67110 -->
<g id="edge8" class="edge"><title>0xe670f0&#45;&gt;0xe67110</title>
<path fill="none" stroke="white" d="M173.462,-73.811C178.471,-64.8216 184.928,-53.2323 190.613,-43.0275"/>
<polygon fill="white" stroke="white" points="193.745,-44.5985 195.554,-34.1593 187.63,-41.1915 193.745,-44.5985"/>
</g>
<!-- l0xe670f0 -->
<!-- 0xe670f0&#45;&gt;l0xe670f0 -->
<!-- 0xe670d0 -->
<g id="node11" class="node"><title>0xe670d0</title>
<ellipse fill="#104e8b" stroke="white" cx="219" cy="-90" rx="18" ry="18"/>
<text text-anchor="middle" x="219" y="-86.3" font-family="Times,serif" font-size="14.00">9</text>
</g>
<!-- 0xe670b0 -->
<g id="node12" class="node"><title>0xe670b0</title>
<ellipse fill="#104e8b" stroke="white" cx="165" cy="-162" rx="18" ry="18"/>
<text text-anchor="middle" x="165" y="-158.3" font-family="Times,serif" font-size="14.00">8</text>
</g>
<!-- 0xe670b0&#45;&gt;0xe670f0 -->
<g id="edge9" class="edge"><title>0xe670b0&#45;&gt;0xe670f0</title>
<path fill="none" stroke="white" stroke-dasharray="5,2" d="M165,-143.697C165,-135.983 165,-126.712 165,-118.112"/>
<polygon fill="white" stroke="white" points="168.5,-118.104 165,-108.104 161.5,-118.104 168.5,-118.104"/>
</g>
<!-- 0xe670b0&#45;&gt;0xe670d0 -->
<g id="edge10" class="edge"><title>0xe670b0&#45;&gt;0xe670d0</title>
<path fill="none" stroke="white" d="M175.669,-147.17C183.213,-137.391 193.481,-124.08 202.129,-112.87"/>
<polygon fill="white" stroke="white" points="205.017,-114.857 208.354,-104.801 199.474,-110.581 205.017,-114.857"/>
</g>
<!-- 0xe67010 -->
<g id="node13" class="node"><title>0xe67010</title>
<ellipse fill="#104e8b" stroke="white" cx="138" cy="-234" rx="18" ry="18"/>
<text text-anchor="middle" x="138" y="-230.3" font-family="Times,serif" font-size="14.00">5</text>
</g>
<!-- 0xe67010&#45;&gt;0xe67030 -->
<g id="edge11" class="edge"><title>0xe67010&#45;&gt;0xe67030</title>
<path fill="none" stroke="white" stroke-dasharray="5,2" d="M131.738,-216.765C128.5,-208.371 124.475,-197.934 120.834,-188.495"/>
<polygon fill="white" stroke="white" points="124.093,-187.218 117.228,-179.147 117.562,-189.737 124.093,-187.218"/>
</g>
<!-- 0xe67010&#45;&gt;0xe670b0 -->
<g id="edge12" class="edge"><title>0xe67010&#45;&gt;0xe670b0</title>
<path fill="none" stroke="white" d="M144.262,-216.765C147.5,-208.371 151.525,-197.934 155.166,-188.495"/>
<polygon fill="white" stroke="white" points="158.438,-189.737 158.772,-179.147 151.907,-187.218 158.438,-189.737"/>
</g>
</g>
</svg>
